<svg xmlns="http://www.w3.org/2000/svg" fill="none" viewBox="0 0 100 100" style="width: 100%; height: 100%; display: block;"><g clip-path="url(#_R_0_-a)"><mask id="_R_0_-b" width="100" height="100" x="0" y="0" maskUnits="userSpaceOnUse" style="mask-type:luminance"><path fill="#fff" d="M100 0H0v100h100z"/></mask><g mask="url(#_R_0_-b)"><path fill="url(#_R_0_-c)" d="M100 50c0-27.6-22.4-50-50-50S0 22.4 0 50s22.4 50 50 50 50-22.4 50-50"/><path fill="#fff" d="m27.1 52.1 34.1-33.8c.6-.6 1.7.1 1.2.9L49.7 42.5c-.3.5.1 1.2.7 1.2h21.9c.7 0 1 .9.5 1.3L34.4 80.8c-.7.6-1.7-.3-1.2-1l18.2-25.1c.4-.5 0-1.2-.6-1.2H27.6c-.7 0-1-.9-.5-1.4"/></g></g><defs><linearGradient id="_R_0_-c" x1="50" x2="50" y1=".001" y2="100" gradientUnits="userSpaceOnUse"><stop stop-color="#b4b4b4"/><stop offset="1" stop-color="#959595"/></linearGradient><clipPath id="_R_0_-a"><path fill="#fff" d="M0 0h100v100H0z"/></clipPath></defs></svg>