<svg xmlns="http://www.w3.org/2000/svg" fill="none" viewBox="0 0 100 100" style="width: 100%; height: 100%; display: block;"><path fill="#aeaeae" d="M4.8 63.2C3.6 59 3 54.5 3 50 3 29.5 15.9 10.7 35 3.4l2.5 6.5C21.1 16.2 10 32.4 10 50q0 5.85 1.5 11.4z"/><path fill="url(#_R_0_-a)" d="M91.4 30.2C84 15.9 69.3 7 53.1 7c-5.7 0-11.3 1.1-16.5 3.3l-2.7-6.4C40 1.3 46.5 0 53.1 0 71.9 0 89 10.3 97.6 27z"/><path fill="#1f1f1f" d="M38.2 39.7c4 0 7.3 2.2 9 5.9l.1.3 6.8-2.3-.1-.4c-2.6-6.4-8.7-10.4-15.8-10.4-5 0-9.1 1.6-12.4 4.9s-5 7.4-5 12.3c0 4.8 1.7 8.9 5 12.2 3.4 3.3 7.4 4.9 12.4 4.9 7.1 0 13.2-4 15.8-10.4l.1-.3-6.8-2.3-.1.3c-1.5 3.7-4.9 5.9-9 5.9-2.8 0-5.2-1-7.1-2.9-1.9-2-2.9-4.4-2.9-7.3s.9-5.3 2.9-7.4c1.9-2 4.2-3 7.1-3"/><path fill="#1f1f1f" d="M80.7 33.5 71 58l-9.7-24.5h-8L67 66.9l-9.7 23.6 7 1.4 24-58.4z"/><path fill="url(#_R_0_-b)" d="m58.5 87.5-1.7 4.1c-.3.8-1.1 1.4-2 1.4h-1.7c-20 0-37.7-14.1-42.1-33.5L4.2 61c2.5 10.9 8.6 20.8 17.4 27.8C30.5 96 41.6 100 53 100h2.1c3.6-.2 6.8-2.4 8.1-5.7l2.2-5.4z"/><defs><linearGradient id="_R_0_-a" x1="47.932" x2="85.984" y1="-3.248" y2="37.422" gradientUnits="userSpaceOnUse"><stop offset=".094" stop-color="#a6a6a6"/><stop offset=".988" stop-color="#a6a6a6" stop-opacity="0"/></linearGradient><linearGradient id="_R_0_-b" x1="2.469" x2="75.165" y1="72.742" y2="92.091" gradientUnits="userSpaceOnUse"><stop offset=".077" stop-color="#a6a6a6"/><stop offset=".762" stop-color="#1f1f1f"/></linearGradient></defs></svg>