<svg xmlns="http://www.w3.org/2000/svg" fill="none" viewBox="0 0 100 100" style="width: 100%; height: 100%; display: block;"><g fill="#d6d6d6" clip-path="url(#_R_0_-a)"><path d="M22.363 49.078a4.184 4.184 0 0 0-1.65-5.878c-2.063-1.134-4.744-.412-5.982 1.65L.604 69.394a4.184 4.184 0 0 0 1.65 5.878c2.062 1.134 4.743.412 5.98-1.65zm30.318-18.871a4.184 4.184 0 0 0-1.65-5.879c-2.165-1.134-4.743-.412-5.981 1.65L30.922 50.522a4.184 4.184 0 0 0 1.65 5.878c2.063 1.134 4.744.413 5.981-1.65zm46.716 0a4.184 4.184 0 0 0-1.65-5.879c-2.063-1.134-4.744-.412-5.982 1.65L77.637 50.522a4.184 4.184 0 0 0 1.65 5.878c2.166 1.134 4.744.413 5.981-1.65zM68.975 49.078a4.184 4.184 0 0 0-1.65-5.878c-2.063-1.134-4.744-.412-5.981 1.65L47.216 69.394a4.184 4.184 0 0 0 1.65 5.878c2.062 1.134 4.743.412 5.98-1.65z"/></g><defs><clipPath id="_R_0_-a"><path fill="#fff" d="M0 0h100v100H0z"/></clipPath></defs></svg>