<svg xmlns="http://www.w3.org/2000/svg" fill="none" viewBox="0 0 100 100" style="width: 100%; height: 100%; display: block;"><g fill-rule="evenodd" clip-path="url(#_R_0_-a)" clip-rule="evenodd"><path fill="url(#_R_0_-b)" d="M53.3.2C45.9 2.8 39 10.4 32.2 22.7 22 41.5 9 68 27 89.1c8.3 9.7 22.3 15.4 40.3 6.4C81.7 88.1 86 67.1 80.5 57.3 69.6 37 58.7 32 55.9 19.4 54 10.9 53 4.5 53.3.2"/><path fill="url(#_R_0_-c)" d="M53.3 0C46 2.6 38.8 10.2 32.2 22.5 22 41.2 9 67.8 27 88.9c8.3 9.7 22 12.8 29.6 7.1 5-3.8 8.3-7.3 10.2-14.9 2.1-8.5.5-19.7-.7-25.1-1.4-6.6-1.9-13.7-1.4-21.8 0 0-.2 0-.2-.2-4-4.7-6.9-9-8.3-14.9C54 10.7 53 4.3 53.3 0"/><path fill="url(#_R_0_-d)" d="M47.1 3.3c-6.9 5.4-11.8 14.5-15.2 27-5 19-5.4 36.5-3.8 46.9 3.3 19.9 21.1 27.2 39.1 18 11.1-5.7 15.9-17.8 15.6-31-.2-13.7-26.8-29.1-31.3-40.5-3-7.8-4.4-14.5-4.4-20.4"/><path fill="url(#_R_0_-e)" d="M64.4 38.9c8.3 10.4 10 17.8 5.4 21.8-6.9 6.2-23.9 10.2-34.4 2.8-7.1-5-9.7-15.6-8.1-32-2.7 6.2-5.3 12.1-7.2 18.5-1.9 6.2-2.6 12.8-1.7 19.4 2.6 5 8.5 8.5 18.2 10.2 14.5 2.6 28.2 1.2 37.4-3.3 6.2-3.1 9-6.2 8.8-9.2.2-4.5-1.2-8.8-4.3-13-2.7-4.3-7.5-9.3-14.1-15.2"/><path fill="url(#_R_0_-f)" d="M32.4 28.4c0 7.6 1.9 14.7 5.9 21.6 5.9 10.2 12.8 20.4 23.2 28.7 6.9 5.7 12.6 7.3 16.6 5.4-3.3 6.2-7.1 9-10.9 9-5.7-.2-12.8-2.6-23.9-16.1-7.6-9-12.6-17.5-15.4-25.6.5-3.1.9-6.4 1.4-9.5.7-3 1.7-7.5 3.1-13.5"/><path fill="url(#_R_0_-g)" d="M50.2 38.9c.7 6.2 3.1 16.1 0 22.5-3.1 6.6-17.1 18.4-13.3 28.9 3.8 10.4 13.3 8.1 19.2 3.3 5.9-4.7 9-12.6 9.7-18.2.7-5.4-1.7-16.1-2.4-25.4-.5-6.2-.2-11.4.9-15.9l-1.9-2.4-10.7-3.1c-1.3 2.7-2 6-1.5 10.3"/><path fill="url(#_R_0_-h)" d="M54 8.3c-3.6 1.4-6.6 4.3-9.7 8.8-4.7 6.4-7.1 10.4-5.2 23.2 1.2 8.5 1.9 16.3 2.6 23.7l14.9-43.4c-.5-2.1-.9-4.3-1.4-5.9-.8-2.1-1-4-1.2-6.4"/><path fill="#1e1e1e" fill-opacity=".316" d="M56.3 20.4c-3.8 2.1-6.6 6.9-8.8 13.5-2.1 6.9-4 16.3-5.7 28.7 2.4-7.8 3.8-13.5 4.5-17.1 1.2-5.2 1.4-12.8 4.5-17.8 2-3.3 3.9-5.7 5.5-7.3"/><path fill="#fff" d="M38.6 93.8c6.2.9 9.5 1.7 9.7 2.4.5.9-.7 1.9-4.3 1.4-2.1-.5-4-1.6-5.4-3.8"/><path fill="#ededed" fill-opacity=".603" d="M41.9 8.3c-3.3 4-6.4 8.5-9 13s-4.3 8.1-5.4 10.2c-.2 1.7-.5 4.3-.5 7.6s.2 6.9.9 10.9c.5-7.8 1.9-15.6 4.5-23 2.4-7.3 5.7-13.7 9.5-18.7"/></g><defs><linearGradient id="_R_0_-b" x1="52.592" x2="49.113" y1="7.602" y2="100.152" gradientUnits="userSpaceOnUse"><stop stop-color="#d9d9d9"/><stop offset="1" stop-color="#fff" stop-opacity=".385"/></linearGradient><linearGradient id="_R_0_-c" x1="66.81" x2="30.465" y1="13.662" y2="93.32" gradientUnits="userSpaceOnUse"><stop stop-color="#7a7a7a" stop-opacity=".672"/><stop offset="1" stop-color="#969696"/></linearGradient><linearGradient id="_R_0_-d" x1="55.087" x2="55.087" y1="33.365" y2="97.441" gradientUnits="userSpaceOnUse"><stop stop-color="#151515" stop-opacity=".762"/><stop offset="1" stop-color="#b5b5b5" stop-opacity=".278"/></linearGradient><linearGradient id="_R_0_-e" x1="38.028" x2="54.34" y1="32.639" y2="75.848" gradientUnits="userSpaceOnUse"><stop stop-color="#818181" stop-opacity=".46"/><stop offset="1" stop-color="#1b1b1b" stop-opacity=".54"/></linearGradient><linearGradient id="_R_0_-f" x1="74.087" x2="29.236" y1="83.694" y2="46.546" gradientUnits="userSpaceOnUse"><stop stop-color="#414141" stop-opacity=".331"/><stop offset="1" stop-color="#1e1e1e" stop-opacity=".821"/></linearGradient><linearGradient id="_R_0_-g" x1="68.428" x2="36.796" y1="40.148" y2="88.278" gradientUnits="userSpaceOnUse"><stop stop-color="#616161" stop-opacity=".145"/><stop offset="1" stop-color="#f4f4f4" stop-opacity=".234"/></linearGradient><linearGradient id="_R_0_-h" x1="62.724" x2="40.324" y1="37.044" y2="35.676" gradientUnits="userSpaceOnUse"><stop stop-color="#a3a3a3" stop-opacity=".356"/><stop offset="1" stop-color="#202020" stop-opacity=".582"/></linearGradient><clipPath id="_R_0_-a"><path fill="#fff" d="M0 0h100v100H0z"/></clipPath></defs></svg>