<svg xmlns="http://www.w3.org/2000/svg" fill="none" viewBox="0 0 100 100" style="width: 100%; height: 100%; display: block;"><g clip-path="url(#_R_0_-a)"><path fill="#818181" d="M50 0c27.6 0 50 22.4 50 50s-22.4 50-50 50S0 77.6 0 50 22.4 0 50 0"/><path fill="#fff" fill-rule="evenodd" d="M51 18.9c6.4-.1 11 1.6 14.9 7.2 8.5 21.2-22 32.1-23.2 32.5 0 0-.9 5.8 7.8 5.5 10.8 0 22.1-8.4 26.4-11.9q.75-.6 1.8-.6c.6 0 1.3.3 1.7.8l3.2 3.4c.5.5.7 1.1.7 1.7 0 .7-.2 1.3-.7 1.8-2.8 3.1-9.4 9.5-19.3 13.7 0 0-16.5 7.7-27.7.4-6.6-4.3-8.5-9.5-9.2-14.9 0 0-8.1-.4-13.2-2.4-5.2-2 0-8.1 0-8.1s1.6-2.5 4.6 0 8.7 1.4 8.7 1.4c.5-4 1.3-9.2 3.8-14.8C36.6 22.9 44.5 19 51 18.9m3.8 11.6c-3.4-3.3-13.3 3.3-13.6 18.3 0 0 2.9.9 9.4-3.5 6.3-4.4 7.6-11.5 4.2-14.8" clip-rule="evenodd"/></g><defs><clipPath id="_R_0_-a"><path fill="#fff" d="M0 0h100v100H0z"/></clipPath></defs></svg>