<svg xmlns="http://www.w3.org/2000/svg" fill="none" viewBox="0 0 100 100" style="width: 100%; height: 100%; display: block;"><path fill="#3b3b3b" d="M15.7 69.3C7.9 61.1 3.4 49.7 3.4 36.2c0-12 3.8-22.3 10.2-30.1H0v63.3zm71.7 0c3.3-3.6 6.3-7.8 9.1-12.6l-15.1-7.5c-5.3 8.6-13 16.5-23.7 16.6-15.6-.1-21.8-13.5-21.7-30.6h58.2c.1-1.9.1-2.8 0-3.8.4-10.2-2.3-18.8-7.2-25.4h13v63.3zM36.9 20.5c.6-7.8 6.8-13 13.9-13 7.2 0 12.4 5.2 12.6 13z"/><path fill="#202020" d="M8.3 80v-2.6H.2V93h8.1v-2.6H3.2v-4.1h4.9v-2.6H3.2V80zM22 86.4c2-.3 3.1-2.3 3.2-4.3-.1-3.3-2.2-4.7-5.3-4.7h-4.1V93h3v-6.2l3.8 6.2h3.8zm-3.2-6.6h.4c1.6.1 2.9.4 2.8 2.4.1 1.8-1.1 2.3-2.8 2.3h-.4zm17-2.4h-3V93h7.3v-2.6h-4.3zm19.8 12.4 1.3 3.2h3.2l-5.8-16h-2.4l-6.2 16h3.2l1.3-3.2zm-.8-2.4H51l1.7-5.8zM65.7 93h3.2V82.5l8.3 10.9h2.3v-16h-3.2v10.5L68 77h-2.3zm27-8.3v2.4H96c-.1 2-1.7 3.6-3.6 3.6-3 .1-4.5-2.8-4.5-5.5 0-2.6 1.5-5.6 4.5-5.6 1.6 0 2.9 1.1 3.6 2.4l2.6-1.3c-1.2-2.4-3.5-3.8-6.2-3.8-4.7 0-7.7 3.8-7.7 8.3.1 4.4 3 8.2 7.5 8.3 4.9-.1 7.2-4 7.2-8.5v-.4h-6.7z"/></svg>