<svg xmlns="http://www.w3.org/2000/svg" fill="none" viewBox="0 0 100 100" style="width: 100%; height: 100%; display: block;"><g clip-path="url(#_R_0_-a)"><path fill="#616161" d="M50 0C22.4 0 0 22.4 0 50s22.4 50 50 50 50-22.4 50-50S77.6 0 50 0M10.7 50.5l38.7 38.7C28.2 89 11 71.8 10.7 50.5m48.1 37.8L11.7 41.2c4-17.5 19.6-30.5 38.3-30.5 13 0 24.6 6.4 31.7 16.2l-5.4 4.8C70.5 23.4 60.9 17.9 50 17.9c-13.9 0-25.7 8.8-30.1 21.1L61 80.1c10-3.6 17.6-12 20.2-22.5h-17V50h25.2c-.1 18.7-13.2 34.3-30.6 38.3"/></g><defs><clipPath id="_R_0_-a"><path fill="#fff" d="M0 0h100v100H0z"/></clipPath></defs></svg>