<svg xmlns="http://www.w3.org/2000/svg" fill="none" viewBox="0 0 100 100" style="width: 100%; height: 100%; display: block;"><path fill="url(#_R_0_-a)" d="M96.4 44.2c-.2-1.6-.4-3.6-1.1-5.7q-.75-3.15-2.7-6.9-1.8-3.75-4.8-7.5c-.7-.9-1.6-2-2.7-2.8 1.4-5.7-1.8-10.5-1.8-10.5-5.3-.4-8.9 1.6-10.1 2.7-.2 0-.4-.2-.7-.4-.9-.4-1.8-.7-2.8-1.1-1.1-.4-2-.5-3-.9-1.1-.2-2.1-.4-3-.5h-.5C60.8 3.2 54.1 0 54.1 0c-7.5 4.8-8.9 11.4-8.9 11.4v.4c-.4.2-.9.2-1.2.4-.5.2-1.1.4-1.8.5-.5.2-1.1.4-1.8.7-1.1.5-2.3 1.1-3.4 1.6s-2.1 1.2-3.2 2c-.2 0-.2-.2-.2-.2-10.5-3.9-19.7.9-19.7.9-.9 11 4.1 18.1 5.2 19.4-.2.7-.5 1.4-.7 2.1-.7 2.5-1.4 5.2-1.8 7.8 0 .4-.2.7-.2 1.1C6.8 52.8 4 62.5 4 62.5c8 9.2 17.4 9.8 17.4 9.8 1.2 2.1 2.5 4.1 4.1 6 .7.7 1.4 1.6 2 2.3-2.8 8.3.4 15.3.4 15.3 8.9.4 14.7-3.9 16-5 .9.4 1.8.5 2.7.9 2.7.7 5.5 1.1 8.3 1.2h3.5c4.3 6 11.5 6.9 11.5 6.9 5.3-5.5 5.5-11 5.5-12.3v-.4c1.1-.7 2.1-1.6 3.2-2.5 2.1-2 3.9-4.1 5.5-6.4.2-.2.4-.4.4-.7 6 .4 10.1-3.7 10.1-3.7-1.1-6.2-4.6-9.2-5.3-9.8h-.2v-4.2.1-3c-.2-.7-.2-1.4-.4-2-.7-2.7-1.6-5.2-3-7.5s-3-4.3-5-6c-2-1.8-4.1-3-6.4-4.1s-4.6-1.6-7.1-2c-1.2-.2-2.3-.2-3.6-.2h-1.9c-.5 0-1.2.2-1.8.2-2.3.4-4.6 1.2-6.6 2.5-2 1.2-3.7 2.7-5.2 4.3-1.4 1.6-2.5 3.6-3.2 5.5s-1.1 3.9-1.2 5.9v2.9c.2.9.4 2 .5 2.8.5 1.8 1.4 3.4 2.3 4.8 1.1 1.4 2.3 2.5 3.6 3.4 1.2.9 2.7 1.6 4.1 2s2.7.5 4.1.5h2.4c.2 0 .4 0 .5-.2.4 0 .5-.2.9-.2.5-.2 1.1-.4 1.6-.7.5-.2.9-.5 1.4-.9.2 0 .2-.2.4-.4.5-.4.5-1.1.2-1.4-.4-.4-.9-.5-1.2-.2-.2 0-.2.2-.4.2-.4.2-.7.4-1.2.5-.4.2-.9.2-1.2.4h-3.1c-1.1-.2-2-.4-3-.9-1.1-.4-2-1.1-2.8-1.8-.9-.7-1.6-1.8-2.1-2.7s-1.1-2.1-1.2-3.4c-.2-.5-.2-1.2-.2-1.8v-.9c0-.4 0-.7.2-1.1.5-2.7 1.8-5.2 3.9-7.3.5-.5 1.1-.9 1.6-1.4.5-.4 1.2-.7 1.8-1.1.7-.4 1.4-.5 2-.7.7-.2 1.4-.4 2.1-.4H63c.7 0 1.6.2 2.3.4 1.6.4 3 .9 4.4 1.8 2.8 1.6 5.2 4.1 6.7 6.9.7 1.4 1.2 3 1.6 4.6 0 .4.2.9.2 1.2v3.2c0 .5 0 .9-.2 1.4 0 .4-.2.9-.2 1.2 0 .4-.2.9-.4 1.2-.2.9-.5 1.8-.9 2.5-.6 1.4-1.5 3-2.5 4.6-2.1 2.8-5 5.3-8.3 6.7-1.6.7-3.4 1.2-5.2 1.6-.9.2-1.8.2-2.7.4H55c-2-.2-3.9-.5-5.7-1.1-1.8-.5-3.7-1.2-5.3-2.1-3.4-1.8-6.4-4.3-8.9-7.3-1.2-1.4-2.3-3-3-4.8-.9-1.8-1.6-3.6-2.1-5.3-.5-1.8-.9-3.7-.9-5.5v-3.6c0-.9.2-2 .2-2.8.2-.9.4-2 .5-2.8.2-.9.4-2 .7-2.8.5-1.8 1.2-3.6 2-5.3 1.6-3.4 3.6-6.4 6-8.7.5-.5 1.2-1.2 2-1.8.7-.5 1.4-1.1 2.1-1.4q1.05-.75 2.1-1.2c.4-.2.7-.4 1.1-.5.2 0 .4-.2.5-.2s.5-.1.7-.1c.7-.4 1.6-.5 2.3-.9.2 0 .4-.2.5-.2.2 0 .4-.2.5-.2.4-.2.9-.2 1.2-.4.2 0 .4-.2.7-.2.2 0 .4 0 .7-.2.2 0 .4 0 .7-.2h.8c.2 0 .4 0 .7-.2.2 0 .5 0 .7-.2h6.3c1.6 0 3.2.2 4.8.5 3 .5 5.9 1.6 8.5 2.8 2.7 1.2 5 2.8 6.9 4.6l.4.4.4.4c.2.2.5.4.7.7.2.4.5.4.7.7.2.4.5.5.7.7.9.9 1.6 1.8 2.3 2.8 1.4 1.8 2.7 3.7 3.6 5.5 0 .2.2.2.2.4s.2.2.2.4c.2.2.2.4.4.7.2.2.2.4.4.7.2.2.2.4.4.7.4.9.7 1.6.9 2.3.4 1.2.7 2.3.9 3.2.2.4.5.7.9.5.4 0 .7-.4.7-.7.4-1.9.4-3.1.3-4.4"/><defs><linearGradient id="_R_0_-a" x1="50.23" x2="50.23" y1="127.024" y2="11.341" gradientUnits="userSpaceOnUse"><stop stop-color="#dbdbdb"/><stop offset="1" stop-color="#818181"/></linearGradient></defs></svg>