<svg xmlns="http://www.w3.org/2000/svg" fill="none" viewBox="0 0 100 100" style="width: 100%; height: 100%; display: block;"><g clip-path="url(#_R_0_-a)"><path fill="#6f6f6f" d="M0 0h100v100H0z"/><path fill="#fff" stroke="#fff" stroke-miterlimit="10" stroke-width=".264" d="M34.6 50.7q0 .15-.3.6c-.1.4-.3.8-.4 1.4-.2.5-.4 1.2-.6 1.8l-.6 2.1-.6 2.1c-.2.7-.4 1.3-.5 1.8-.2.5-.3 1-.4 1.4s-.2.6-.2.7c-.1.2-.1.5-.3.7-.1.3-.3.5-.4.8l-.6.6c-.2.2-.4.2-.6.2-.4 0-.6-.1-.8-.4-.2-.2-.3-.7-.3-1.3v-.6q0-.3.3-1.2c.2-.6.4-1.3.6-2s.5-1.5.7-2.4c.3-.8.5-1.5.7-2.2-.6.7-1.3 1.4-2 2-.7.7-1.4 1.3-2.2 1.8-.7.5-1.5 1-2.3 1.3s-1.5.5-2.2.5c-.8 0-1.5-.2-2.1-.5-.6-.4-1.1-.8-1.4-1.4-.4-.6-.7-1.2-.8-1.9-.2-.7-.3-1.4-.3-2.2v-.5c.1-1.3.3-2.7.6-4 .3-1.4.7-2.7 1.2-4.1s1.1-2.7 1.7-4c.7-1.3 1.4-2.5 2.1-3.7.8-1.2 1.6-2.2 2.4-3.2.9-1 1.7-1.8 2.7-2.5.9-.7 1.8-1.2 2.8-1.6.9-.4 1.8-.6 2.8-.6s2.1.3 3 .9c1 .6 1.9 1.5 2.7 2.8.2.3.3.6.4.9s.1.6.1.8c0 .6-.1 1.1-.4 1.5s-.6.5-1 .5-.7-.2-1-.6-.7-.9-1.1-1.7c-.4-.7-.8-1.1-1.2-1.4s-.9-.4-1.4-.4c-.8 0-1.7.3-2.6 1s-1.8 1.6-2.7 2.6c-.9 1.1-1.8 2.4-2.6 3.8s-1.6 2.9-2.2 4.3c-.6 1.5-1.1 2.9-1.5 4.4q-.6 2.1-.6 3.9c0 .4 0 .8.1 1.2s.1.8.3 1.1c.1.3.3.6.6.8.2.2.6.3.9.3.4 0 .9-.1 1.4-.4s1.1-.7 1.7-1.1c.6-.5 1.2-1 1.8-1.6s1.1-1.2 1.6-1.8 1-1.2 1.3-1.7c.4-.6.7-1 .9-1.4l1.6-4.8c.2-.5.5-.9.8-1.1s.6-.3 1-.3c.2 0 .3 0 .5.1s.3.1.4.3c.1.1.2.3.3.5s.1.4.1.6c0 .7-.1 1.3-.2 1.8-.1.6-.3 1.1-.4 1.7-.2.5-.4 1.1-.6 1.6-.3.2-.5.8-.7 1.4Zm21.8 4c-.5.7-1.1 1.3-1.8 2-.7.6-1.4 1.2-2.1 1.7q-1.05.75-2.1 1.2c-.7.3-1.3.5-1.9.5s-1-.2-1.3-.6-.5-1-.5-1.9c0-.6.1-1.4.3-2.2-.3.5-.7 1.1-1.1 1.6s-1 1-1.5 1.5c-.6.5-1.2.8-1.9 1.1s-1.5.4-2.3.4c-.4 0-.7 0-1.1-.1s-.7-.3-.9-.5q-.45-.3-.6-.9c-.2-.4-.2-.9-.2-1.5 0 0 0-.2.1-.6 0-.4.2-1 .4-1.9s.6-2 1.1-3.4 1.2-3 2.2-5c.2-.5.5-.9.8-1.1s.7-.3 1-.3c.2 0 .3 0 .5.1.2 0 .3.1.5.2.1.1.3.2.4.4s.1.3.1.5c0 .1 0 .3-.1.4-.1.2-.2.5-.4.9s-.4.8-.7 1.3-.5 1-.8 1.6-.5 1.1-.8 1.7l-.6 1.8q-.3.9-.3 1.8c0 .2.1.5.2.7q.15.3.6.3c.7 0 1.5-.2 2.1-.7.7-.5 1.3-1.1 1.9-1.8s1.1-1.5 1.6-2.4c.5-.8.9-1.6 1.2-2.3l.6-1.5c.2-.5.3-1 .5-1.5s.4-.8.7-1.1.6-.5.9-.5c.4 0 .7.2 1 .5.2.3.4.7.4 1.1 0 .2-.1.6-.2 1q-.3.6-.6 1.5c-.2.6-.5 1.1-.8 1.8-.3.6-.5 1.3-.8 1.9-.2.6-.4 1.3-.6 1.9s-.2 1.2-.2 1.7.3.7.8.7c.4 0 .8-.1 1.3-.4s1.1-.6 1.7-1 1.2-1 1.7-1.6c.6-.6 1.1-1.2 1.5-1.9z"/><path fill="#fff" stroke="#fff" stroke-miterlimit="10" stroke-width=".264" d="M56.9 53.7c-.1.3-.3.7-.4 1.1s-.2.8-.2 1.1c0 .2 0 .4.1.5s.2.2.4.2q.3 0 .9-.3c.4-.2.8-.4 1.2-.7s.9-.6 1.3-1c.5-.4.9-.7 1.4-1.1.4-.4.9-.8 1.3-1.2s.8-.7 1.1-1.1c.1-.1.2-.2.3-.2s.2-.1.3-.1q.3 0 .6.3c.1.2.2.4.2.8 0 .3-.1.6-.2 1-.2.4-.4.7-.8 1-.7.8-1.5 1.6-2.2 2.3s-1.5 1.4-2.2 1.9c-.7.6-1.5 1-2.2 1.3s-1.4.5-2.1.5c-.5 0-.9-.1-1.2-.2-.3-.2-.6-.4-.8-.6-.2-.3-.3-.6-.4-.9s-.1-.7-.1-1.1q0-1.05.3-2.1c.2-.7.4-1.3.6-1.9.4-1.1.8-2.1 1.2-3.2.4-1 .8-2 1.1-2.9L61.5 34c.2-.5.5-.9.8-1.1.4-.2.7-.3 1.1-.3s.7.1 1 .3.4.6.4 1.1c0 .2 0 .5-.1.8s-.2.6-.4.9c-.3.6-.6 1.4-1 2.4-.4.9-.8 1.9-1.3 3s-.9 2.2-1.4 3.4-.9 2.3-1.4 3.4c-.4 1.1-.9 2.1-1.3 3.1s-.7 1.9-1 2.7Z"/><path fill="#fff" stroke="#fff" stroke-miterlimit="10" stroke-width=".264" d="M81.4 49.9c.2-.1.3-.2.4-.3s.3-.1.4-.1c.3 0 .4.1.6.3.1.2.2.5.2.8 0 .4-.1.7-.2 1.1-.2.4-.4.7-.7.9q-1.8 1.65-3.3 3c-1 .9-1.9 1.7-2.7 2.3-.9.6-1.7 1.1-2.5 1.5s-1.7.5-2.6.5-1.6-.2-2-.6c-.5-.4-.7-.9-.7-1.6v-.4c0-.4.2-.9.5-1.4s.7-1.1 1.1-1.7.9-1.2 1.4-1.7c.5-.6 1-1.1 1.4-1.7.4-.5.8-1 1-1.4.3-.4.4-.8.4-1.1 0-.2-.1-.3-.2-.4s-.3-.1-.6-.1c-.5 0-.9.1-1.4.4-.5.2-1 .6-1.4 1-.5.4-.9.9-1.4 1.4s-.9 1.1-1.3 1.6-.8 1.1-1.1 1.7-.6 1.1-.8 1.6l-.3.6c-.1.3-.3.6-.4.9-.2.3-.3.7-.5 1.1s-.3.7-.5 1c-.1.3-.3.6-.4.9s-.2.4-.2.5c-.1.1-.2.4-.3.7s-.3.7-.5 1.2-.4.9-.5 1.4c-.2.5-.4 1-.5 1.4-.2.5-.3.8-.4 1.2-.1.3-.2.6-.2.7-.1.4-.3.7-.4 1-.2.3-.3.6-.5.8s-.4.4-.7.6c-.3.1-.6.2-.9.2-.4 0-.8-.1-1-.3-.3-.2-.4-.6-.4-1.1 0-.3 0-.6.1-.8.1-.3.2-.6.3-.8.1-.3.2-.6.3-.8.1-.3.2-.5.3-.8.6-1.4 1.3-2.7 1.9-4.1s1.3-2.7 1.9-4.1c.6-1.3 1.1-2.7 1.6-4s.9-2.5 1.3-3.7c.1-.2.2-.6.4-1 .2-.5.3-.9.6-1.3.2-.4.4-.8.7-1.1s.5-.5.8-.5c.5 0 .8.1 1 .3q.3.3.3.9v.4c0 .2-.1.4-.1.6s-.1.4-.1.6-.1.3-.1.4c.4-.5.9-.9 1.4-1.4q.75-.75 1.5-1.2c.5-.4 1.1-.7 1.6-.9.6-.2 1.1-.3 1.7-.3.4 0 .8.1 1.1.2.4.1.7.3 1 .5s.5.5.7.8.3.7.3 1.1c0 .6-.1 1.2-.4 1.8s-.6 1.3-1.1 1.9c-.4.6-.9 1.3-1.4 1.9s-1 1.2-1.4 1.7-.8.9-1.1 1.3c-.3.3-.4.6-.5.7 0 .2.1.3.2.4h.3q.3 0 .9-.3c.4-.2.9-.6 1.6-1.1s1.6-1.3 2.6-2.2 2.3-2.1 3.9-3.5Z"/></g><defs><clipPath id="_R_0_-a"><path fill="#fff" d="M0 0h100v100H0z"/></clipPath></defs></svg>