<svg xmlns="http://www.w3.org/2000/svg" fill="none" viewBox="0 0 100 100" style="width: 100%; height: 100%; display: block;"><path fill="#252525" d="M85.8 0H14C9 0 5 4 5 9v82c0 5 4 9 9 9h71.8c5 0 9-4 9-9V9c0-5-4-9-9-9m4 91c0 2.2-1.8 4-4 4H14c-2.2 0-4-1.8-4-4V9c0-2.2 1.8-4 4-4h71.8c2.2 0 4 1.8 4 4zm-62.3-6 11.2-10-11.2-10zM68 44.5c-2-2-5.8-4.5-12-4.5-6.8 0-13.8 1.8-18.8 3.5V15h-10v43.2l7-3.2s11.5-5.2 21.5-5.2c5 0 6.2 2.8 6.2 5.2v30h10V55c.3-.7.3-6.2-3.9-10.5M54.8 31.3h10c4.5-5.2 6.8-10.5 7.5-16.2h-10c-1.1 5.7-3.5 10.9-7.5 16.2"/></svg>