<svg xmlns="http://www.w3.org/2000/svg" fill="none" viewBox="0 0 100 100" style="width: 100%; height: 100%; display: block;"><g clip-path="url(#_R_0_-a)"><path fill="#fff" stroke="#fff" stroke-miterlimit="10" stroke-width="5" d="M88.962 23.786a7 7 0 0 0-3.49-4.077L52.547 3.495c-.849-.485-1.792-.582-2.641-.582-.85 0-1.793 0-2.736.194l-32.925 16.31c-1.603.777-2.83 2.233-3.207 4.078L2.925 60.097c-.283 1.845.094 3.786 1.226 5.34l22.736 28.932c1.32 1.36 3.113 2.233 5 2.33h36.226c1.981.194 3.774-.68 5-2.33L95.85 65.437c1.038-1.553 1.51-3.398 1.32-5.34z"/><path fill="#696969" d="M88.962 23.786a7 7 0 0 0-3.49-4.077L52.547 3.495c-.849-.485-1.792-.582-2.641-.582-.85 0-1.793 0-2.736.194l-32.925 16.31c-1.603.777-2.83 2.233-3.207 4.078L2.925 60.097c-.283 1.845.094 3.786 1.226 5.34l22.736 28.932c1.32 1.36 3.113 2.233 5 2.33h36.226c1.981.194 3.774-.68 5-2.33L95.85 65.437c1.038-1.553 1.51-3.398 1.32-5.34z"/><path fill="#fff" d="M83.868 58.64c-.094 0-.189 0-.189-.096 0-.097-.189-.097-.472-.097-.471-.098-.848-.098-1.32-.098-.189 0-.472 0-.66-.097h-.095c-1.226-.097-2.453-.29-3.68-.68-.282-.096-.66-.485-.754-.776l-.849-.194c.472-3.204.189-6.505-.472-9.806-.754-3.204-2.075-6.31-3.773-9.126l.66-.68v-.097c0-.291.095-.776.283-.97.944-.874 1.981-1.554 3.019-2.234.189-.097.472-.194.66-.29.472-.195.755-.486 1.227-.68.094-.098.188-.098.283-.195s0-.097 0-.194c.943-.777 1.226-2.136.471-3.107-.282-.485-.943-.776-1.509-.776s-1.038.194-1.51.582l-.094.097c-.094.097-.188.194-.283.194-.283.292-.66.68-.849.971-.094.194-.283.291-.472.486-.754.874-1.698 1.747-2.735 2.427-.189.097-.472.194-.66.194-.095 0-.284 0-.472-.097h-.095l-.849.582c-.755-.97-1.792-1.844-2.641-2.815-3.962-3.204-8.962-5.243-14.057-5.728l-.094-.874v.097c-.283-.194-.472-.582-.566-.874 0-1.262 0-2.427.188-3.786v-.097c0-.194.095-.486.095-.68.094-.485.094-.874.188-1.359v-.68c.095-1.068-.754-2.233-1.792-2.33-.66-.097-1.32.194-1.792.777-.472.485-.66.97-.66 1.553v.583c0 .485.093.874.188 1.36.094.193.094.485.094.679v.097c.189 1.262.189 2.427.189 3.786-.094.292-.189.68-.566.874v.194l-.095.874c-1.226.097-2.358.291-3.679.582-5.094 1.069-9.717 3.884-13.302 7.767l-.66-.485h-.094c-.095 0-.19.097-.472.097-.189 0-.472-.097-.66-.194-.944-.777-1.982-1.65-2.736-2.524-.095-.195-.283-.292-.472-.486-.283-.291-.566-.68-.85-.97-.093-.098-.188-.098-.282-.195l-.094-.097c-.472-.291-.944-.582-1.51-.582-.66 0-1.226.194-1.51.776-.66.971-.471 2.33.472 3.107.095 0 .095.097.095.097s.188.194.283.194c.283.194.755.486 1.226.68.189.097.472.194.66.291 1.038.68 2.17 1.36 3.02 2.233.188.194.471.68.283.971V36.7l.66.68c-.095.194-.189.29-.283.582-3.302 5.437-4.717 11.845-3.774 18.253l-.849.194c0 .097-.094.097-.094.097-.095.291-.472.582-.755.777-1.226.29-2.358.582-3.68.68-.188 0-.47 0-.66.096-.471 0-.849.097-1.32.097-.095 0-.189.097-.472.097-.094 0-.094 0-.189.097a2.056 2.056 0 0 0-1.698 2.525c.189.97 1.227 1.65 2.17 1.553.189 0 .283 0 .566-.097.094 0 .094 0 .094-.097s.284 0 .472 0c.472-.097.85-.291 1.227-.485.188-.097.471-.195.66-.195h.094c1.227-.485 2.264-.776 3.585-.97h.095c.282 0 .66.097.849.29.094 0 .094.098.094.098l.943-.097c1.604 5.145 4.623 9.611 8.868 13.01.944.776 1.793 1.456 2.925 2.038l-.472.777c0 .097.094.097.094.097.19.291.19.777.095 1.068-.472 1.068-1.038 2.233-1.698 3.204v.097c-.095.194-.19.291-.472.583-.189.194-.472.68-.755 1.067-.094.098-.094.195-.188.292 0 0 0 .097-.095.097-.471 1.36-.094 2.621.85 3.204.188.097.565.194.754.194.849 0 1.604-.583 2.075-1.36 0 0 0-.096.095-.096 0-.097.094-.195.188-.292.095-.485.283-.776.472-1.262l.189-.68c.283-1.262.849-2.33 1.415-3.397.189-.292.566-.583.849-.68.094 0 .094 0 .094-.097l.472-.874c3.019 1.262 6.132 1.748 9.34 1.748 1.98 0 3.868-.194 5.849-.777 1.226-.194 2.358-.68 3.49-.97l.472.776c.094 0 .094 0 .094.097.283.097.66.291.85.68a21.4 21.4 0 0 1 1.414 3.397v.098l.19.68c.093.485.188.873.47 1.261.095.097.095.195.19.292 0 0 0 .097.094.097.471.776 1.226 1.359 2.075 1.359.283 0 .566-.097.85-.194.471-.194.848-.68.943-1.262.094-.583.094-1.068-.095-1.65 0-.098-.094-.098-.094-.098 0-.097-.094-.194-.189-.291-.188-.486-.471-.777-.754-1.068-.095-.194-.189-.291-.472-.583v-.194c-.755-.97-1.32-2.136-1.698-3.204-.095-.291-.095-.776.094-1.068 0-.097.095-.097.095-.097l-.284-.874a27.4 27.4 0 0 0 11.7-15.146l.849.097c.094 0 .094-.097.094-.097.189-.194.566-.291.85-.291h.093c1.227.194 2.359.582 3.491.97h.094c.189.098.472.195.66.195.472.194.756.485 1.227.582.094 0 .189.097.472.097.094 0 .094 0 .188.097.19.097.284.097.567.097.943 0 1.792-.68 2.17-1.553-.284-1.36-1.133-2.233-2.076-2.427m-31.226-3.397L49.718 56.7l-2.925-1.456-.754-3.204 2.075-2.622h3.208l2.075 2.622zm17.641-7.282c.566 2.33.66 4.66.472 6.99l-10.283-3.01c-.944-.193-1.51-1.261-1.321-2.232.094-.292.189-.583.472-.777l8.113-7.573c1.132 2.04 1.981 4.272 2.547 6.602m-5.85-10.68-8.867 6.408c-.755.486-1.792.292-2.358-.485-.19-.194-.283-.486-.283-.777l-.66-11.165c4.716.583 8.961 2.719 12.169 6.02m-19.527-5.63 2.17-.486-.567 11.068c0 .97-.849 1.748-1.792 1.748-.283 0-.566-.098-.85-.195l-8.961-6.504c2.736-2.719 6.226-4.758 10-5.631M31.7 41.458l8.019 7.282c.755.68.849 1.747.189 2.524q-.283.437-.85.583l-10.471 3.107c-.283-4.66.755-9.418 3.113-13.496m-1.792 18.738 10.66-1.845c.85 0 1.698.583 1.792 1.457.095.291.095.777-.094 1.068L38.21 71.07c-3.774-2.524-6.793-6.408-8.302-10.874m24.528 13.787c-1.51.29-3.019.582-4.623.582-2.264 0-4.622-.485-6.792-1.068l5.283-9.903c.566-.68 1.415-.873 2.17-.485.283.194.566.485.849.776l5.188 9.612c-.754.097-1.32.291-2.075.486m13.113-9.71c-1.604 2.622-3.868 4.952-6.51 6.7l-4.245-10.388c-.188-.874.19-1.748.944-2.136.283-.098.66-.195.943-.195l10.755 1.845c-.377 1.553-1.038 3.01-1.887 4.175"/></g><defs><clipPath id="_R_0_-a"><path fill="#fff" d="M0 0h100v100H0z"/></clipPath></defs></svg>