<svg xmlns="http://www.w3.org/2000/svg" fill="none" viewBox="0 0 100 100" style="width: 100%; height: 100%; display: block;"><path fill="#323232" d="M34.9 60.4c0-.2.1-.5.2-.7l.3.6c.5 1.2 1 2.3 2.1 3 0 1.1-1.4 1.5-2.3 1.4-.2-.5-.5-.9-1.1-.7s-1.2 0-1.1-.8c1.4 0 1.7-1.5 1.9-2.8m41.7-21.9c-1.3 0-2.6.5-3.5 1.4l-3.8 3.7c-1 1-1.5 2.4-1.4 3.8v.2c.2 1.1.6 2.1 1.4 2.8.5.5 1.1.9 1.9 1.1.1.6 0 1.2-.1 1.7q-.3.9-.9 1.5l-.2.2c-1.4-.5-2.7-1.3-3.7-2.5-1-1.1-1.7-2.5-1.9-4v-.2l-.2.2c-.1 0-.3.2-.4.3L60 52.4c-.5.4-.8 1-1.1 1.6-.2.6-.4 1.2-.4 1.9s.1 1.3.4 1.9c.2.6.6 1.1 1.1 1.6 1 1 2.2 1.4 3.5 1.4s2.5-.5 3.5-1.4l3.8-3.7c.6-.6 1-1.3 1.3-2.1.2-.8.3-1.6 0-2.4-.2-.8-.6-1.5-1.1-2.2-.6-.6-1.2-1.1-2-1.3-.1-.6 0-1.3.1-1.9.2-.6.5-1.2 1-1.6 1.4.5 2.7 1.3 3.7 2.5 1 1.1 1.7 2.5 2 4v.2l.2-.2c.1-.1.2-.2.4-.3l3.8-3.7c.5-.4.8-1 1.1-1.6.2-.6.4-1.2.4-1.9s-.1-1.3-.4-1.9c-.2-.6-.6-1.1-1.1-1.6-.9-.9-2.2-1.4-3.5-1.4z"/><path fill="#323232" fill-rule="evenodd" d="M74.6 25H25.4C11.4 25 0 36.2 0 50s11.4 25 25.4 25h49.2c14 0 25.4-11.2 25.4-25S88.6 25 74.6 25M50.3 64.2c-.8.2-1.7.2-2.3-.4-.2.4-.6.3-.9.2h-.3c0 .1 0 .2-.1.3-1.4 0-2.4-1.3-3.1-2.3-.6-.3-1.3-.6-2-.9s-1.4-.6-2.1-1v.7c0 1 0 2.1-.9 2.7 0 1.2 1 1.2 2 1.2.9 0 1.7 0 1.9.8h-.2c-.2 0-.4 0-.5.1-.5.5-1 .3-1.6 0-.5-.2-1-.4-1.5 0-.4.2-.7.4-1.1.6-.7.5-1.5.8-2.3.8-.1-.2 0-.2 0-.3 0 0 .1-.2.2-.2 0-.1.1-.2.2-.3.2-.4.4-.8 1-.9-.8-.1-1.4.2-2.1.6 0 0-.2.1-.3.2-.4.2-.6 0-.9 0-.3-.2-.7-.4-1.6.2-.2-.1 0-.3 0-.4.4-.5.9-.5 1.4-.5-1.5-.8-2.5-.2-3.4.2-.8.4-1.4.7-2 0-.3 0-.4.3-.6.4 0 0-.1.2-.2.2-.1-.2-.1-.3 0-.5v-.2h-.1c-.2-.1-.4-.2-.4-.6-.5-.2-.8.1-1.2.4-.2-.2 0-.4.1-.6 0 0 .1-.2.2-.3.2-.3.4-.3.7-.3.2 0 .5 0 .6-.2.6-.3 1.2-.1 1.9 0 .5.1 1 .2 1.5.2.8.1 1.9-.8 1.5-1.6-.8-1-.8-2.2-.8-3.4v-.6c0-.5-.7-1-1.4-1.5-.5-.4-1-.8-1.2-1.2-.7-.7-1.2-1.6-1.7-2.4-.9-1.8-1.2-3.7-1.6-5.6-.4-2.3-.9-4.5-2.2-6.4-1.1.6-2.6.3-3.5-.5-.5.4-.5 1-.6 1.7-1.2-1.2-1.1-3.5 0-4.8.4-.5.9-1 1.4-1.4.1 0 .2-.2.2-.3 1-4.3 7.6-3.5 9.8-.4.7.9 1.2 1.8 1.6 2.8.6 1.2 1.1 2.4 2.1 3.3.9 1 1.9 1.9 2.8 2.9 1.5 1.5 3 2.9 4.3 4.5 2 2.4 3.5 5.3 4.8 8.2.2.4.3.8.5 1.2.2.6.4 1.2.8 1.7.1.1.3.4.6.6.6.6 1.5 1.4 1.2 1.7 0 0 .1.2.2.2.1.1.3.2.5.4.5.4 1 .7.7 1m32.4-14.8-3.8 3.7q-1.5 1.5-3.6 2.1c-.4 1.1-1.1 2.2-2 3l-3.8 3.7c-1.6 1.6-3.8 2.5-6.1 2.5s-4.5-.9-6.1-2.5c-.8-.8-1.4-1.7-1.9-2.8-.4-1-.7-2.2-.7-3.3s.2-2.2.7-3.3c.4-1 1.1-2 1.9-2.8l3.8-3.7q1.5-1.5 3.6-2.1c.4-1.1 1.1-2.2 2-3l3.8-3.7c1.6-1.6 3.8-2.5 6.1-2.5s4.5.9 6.1 2.5 2.5 3.8 2.5 6-.9 4.4-2.5 6z" clip-rule="evenodd"/></svg>