<svg xmlns="http://www.w3.org/2000/svg" fill="none" viewBox="0 0 100 100" style="width: 100%; height: 100%; display: block;"><path fill="#7f7f7f" fill-rule="evenodd" d="M100 35c0 5.5-4.6 10-10.3 10s-8.8-3.2-9.9-7.5H65.5c-2.5 0-4.6 1.8-5.1 4.2l-.4 2.5c-.4 2.3-1.6 4.4-3.3 5.9 1.7 1.5 2.9 3.5 3.3 5.9l.4 2.5c.2 1.2.8 2.3 1.8 3 .9.8 2.1 1.2 3.3 1.2h4.1c1.1-4.3 5.2-7.5 9.9-7.5s10.3 4.5 10.3 10-4.6 10-10.3 10-8.8-3.2-9.9-7.5h-4.1c-5 0-9.3-3.5-10.1-8.4l-.4-2.5q-.3-1.8-1.8-3c-.9-.8-2.1-1.2-3.3-1.2h-4.2c-1.3 4.1-5.2 7.1-9.8 7.1s-8.5-3-9.8-7.1h-6c-1.3 4.1-5.2 7.1-9.8 7.1S0 55.1 0 49.6s4.6-10 10.3-10 9.1 3.4 10 7.9h5.6c1-4.5 5.1-7.9 10-7.9s9 3.4 10 7.9h4c2.5 0 4.6-1.8 5.1-4.2l.4-2.5c.8-4.8 5.1-8.4 10.1-8.4h14.3c1.1-4.3 5.2-7.5 9.9-7.5s10.3 4.5 10.3 10zm-5.1 0c0 2.8-2.3 5-5.1 5s-5.1-2.2-5.1-5 2.3-5 5.1-5 5.1 2.2 5.1 5M10.3 54.6c2.8 0 5.1-2.2 5.1-5s-2.3-5-5.1-5-5.1 2.2-5.1 5 2.3 5 5.1 5m25.6 0c2.8 0 5.1-2.2 5.1-5s-2.3-5-5.1-5-5.1 2.2-5.1 5 2.3 5 5.1 5M79.5 70c2.8 0 5.1-2.2 5.1-5s-2.3-5-5.1-5-5.1 2.2-5.1 5 2.3 5 5.1 5" clip-rule="evenodd"/></svg>