<svg xmlns="http://www.w3.org/2000/svg" fill="none" viewBox="0 0 100 100" style="width: 100%; height: 100%; display: block;"><g clip-path="url(#_R_0_-a)"><path fill="#959595" d="m59.8 64.7-24.5-5.1-.3.6 22.3 32.6 1.3-1.3 3.8-23.6c-.6-.3-1.2-.7-1.7-1.2-.4-.7-.7-1.3-.9-2m-8.9-32c-.9 1.4-2.5 2.3-4.3 2.3-.3 0-.5 0-.8-.1L34.5 52.4l29.9-12.9v-.4c0-.3 0-.5.1-.7zm.8-3.2 14.5 6.2c.5-.4 1-.6 1.6-.8l2.4-14.8L61 11 50.8 27c.5.7.8 1.6.9 2.5M82 32l-9.1-9.1-2 12.3c.5.3 1 .6 1.3 1zM60.2 61.5c.4-.6.9-1.2 1.5-1.6s1.3-.6 2.1-.7L66.4 43c-.2-.1-.4-.3-.6-.5l-30 12.9c.1.3.1.6.2 1zm24.3-27L74 39l25.9 11.1.1-.1zM65.7 67.8l-3.2 19.6 18.3-18.3-13.2-2.8c-.4.7-1.1 1.2-1.9 1.5m-35.7-5c-.7 0-1.3-.1-1.9-.3L22 72l-2.4-2.4 5.8-9c-.1-.2-.3-.4-.4-.6l-10.5 4.5L12 62l11.4-4.9-20.5-4.3L.1 50l.9-.9 23.9 5c.3-.5.6-1 1-1.4L14.3 35.8l2.3-2.3 12.1 17.7c.4-.1.9-.2 1.3-.2.5 0 1 .1 1.5.2l11.3-17.7c-.9-1-1.4-2.2-1.4-3.6 0-.4.1-.8.1-1.2l-14.1-6 2.5-2.5 13.4 5.7c.7-.6 1.5-.9 2.4-1.1s1.8-.1 2.6.2L58.7 8.7 50 0 0 50l50 50 4.9-4.9-22.5-32.8c-.7.3-1.5.5-2.4.5m39.6-19.1-2.7 16.5c.5.4.8.8 1.1 1.4.3.5.5 1.1.5 1.7l15.1 3.1 13.8-13.8-24.9-10.7c-.7 1-1.7 1.6-2.9 1.8"/></g><defs><clipPath id="_R_0_-a"><path fill="#fff" d="M0 0h100v100H0z"/></clipPath></defs></svg>