<svg xmlns="http://www.w3.org/2000/svg" fill="none" viewBox="0 0 100 100" style="width: 100%; height: 100%; display: block;"><g clip-path="url(#_R_0_-a)"><mask id="_R_0_-b" width="100" height="100" x="0" y="0" maskUnits="userSpaceOnUse" style="mask-type:luminance"><path fill="#fff" d="M100 0H0v100h100z"/></mask><g mask="url(#_R_0_-b)"><path fill="#fff" d="M94.7 49.1C94.7 22.5 74 1 48.5 1S2.3 22.5 2.3 49.1 23 97.3 48.5 97.3s46.2-21.6 46.2-48.2"/><path fill="#2b2b2b" d="M41.7 99.6c-10.9-1.9-20.2-6.9-27.9-14.8C7.2 78 2.7 69.5.7 60c-.9-4.1-.9-15.8 0-20 1.4-6.4 4.1-12.8 7.8-18.4 2.4-3.7 9.6-10.8 13.2-13.2C27.3 4.7 33.6 2 40.1.6c4.1-.9 15.8-.9 20 0 10 2.2 18.3 6.7 25.5 13.9S97.3 30 99.5 40c.9 4.1.9 15.8 0 20-2.2 10-6.7 18.3-13.9 25.5-7.1 7.1-15.3 11.6-25.1 13.8-3.5.8-15 1-18.7.4zm9-10c0-3.3 0-3.5-.7-3.5s-.7.2-.7 3c0 3.3.3 4.4.9 4.1.3-.1.4-1.2.4-3.7zm-5.3 1.2c.9-.9 1.2-1.5 1.2-2.5s-.1-1.3-.6-1.2c-.3 0-.7.6-.9 1.2s-.8 1.5-1.4 2c-1.1.9-1.1 1.7 0 1.7s1.1-.5 1.8-1.2zm11.7.8c.1-.2-.3-.8-.9-1.3s-1.2-1.4-1.4-2-.5-1.1-.9-1.2c-.5 0-.6.2-.6 1.2 0 2 2.9 4.6 3.7 3.3zM41 85.2c0-.2-.5-.6-1.1-1-3.9-2.2-8.6-5.6-11.2-8.3-5-5.2-7.3-10.5-7.3-16.9 0-4.3.5-6.6 2.6-10.6 2-3.9 4.4-6.9 10.9-13.6 7.3-7.5 8.9-9.5 10.2-12.1.9-1.8 1-2.5 1.1-6.4.2-4.9-.1-8.2-.7-8.2s-.3 1.3-.2 4.1c.5 9.1-1.2 11.9-11.6 19.4-7.2 5.2-10.5 8-13 11.1-3.5 4.4-5.1 8.2-5.5 13.3-.9 12.4 6.9 23.1 20.8 28.4 3.1 1.2 5 1.5 5 .8m23.9-1c4.8-2 8.4-4.4 11.8-7.8 5.2-5.2 7.4-10.1 7.7-17.4.3-6.4-1.1-10.6-5-15.3-2.7-3.3-5.6-5.6-13.4-10.8-10.5-7-13-9.8-13-14.6s.2-3.1.5-4.1c.5-1.6.5-2.7 0-1.5s-1.5.7-2.1-1.1l-.5-1.7.2 1.6c.7 5.7.8 8 .5 13-.4 6.7-1.3 11.3-3.5 19.6s-2.6 11.3-2.4 17.6c.2 5.3 1 9.3 2.7 14.5 1.6 4.8 1.9 5.2 4.9 6 1.6.4 3.2 1.1 4.4 2 1.2.8 2.3 1.4 3 1.4.6 0 2.5-.6 4.3-1.3zm-1-2.4c-.4-.4-.2-.8 1.5-2.7 5.4-6 7.9-12.2 8-20.2 0-5.5-1.2-9.1-4.8-14.5-1.7-2.5-7.5-8.6-10.4-10.9-2.1-1.7-4.2-4.5-4.6-6.1s.7-1.2 2 .8c.6 1 1.9 2.4 3 3.1 1 .8 4 3 6.7 5 9.1 6.8 13.2 12.6 14.1 20.1.5 4.3-.3 8.8-2.4 13-2.2 4.3-6.2 9-9.6 11.3-2.1 1.4-2.8 1.7-3.2 1.2zm-17.9.5c.1-.3-.8-2-2-3.8-3.2-4.8-4.6-7.5-5.9-11.3-1.1-3.2-1.2-3.6-1.2-8.5 0-7.4.8-9.7 6.6-19.4 5.5-9.2 6.3-12.7 5.6-26.8-.2-5-.5-9.2-.6-9.3-.6-.6-.7.9-.5 6 .4 10.1-.2 15.7-2.4 20.4-1.5 3.1-3.1 5.5-7.4 10.9-6.1 7.5-7.8 11.5-7.8 18.1 0 4.5.6 7.2 2.4 11.1 2 4.2 5.6 8.4 10.1 11.7 2.1 1.6 2.6 1.7 2.9 1z"/></g></g><defs><clipPath id="_R_0_-a"><path fill="#fff" d="M0 0h100v100H0z"/></clipPath></defs></svg>