<svg xmlns="http://www.w3.org/2000/svg" fill="none" viewBox="0 0 100 100" style="width: 100%; height: 100%; display: block;"><g clip-path="url(#_R_0_-a)"><path fill="#363636" fill-rule="evenodd" d="M9.8 68.6c-1-1.6-1-3.6 0-5.3l37.4-61c2.1-3.4 7.1-3.1 8.8.5L90.1 77c1.3 2.7-.2 6-3.1 6.9L33.8 99.8c-2.1.6-4.4-.2-5.6-2.1zm41.6-48.4c.4-1.8 2.8-2.1 3.5-.4l23.6 54.5c.4 1-.1 2.2-1.2 2.5l-36.7 11c-1.3.4-2.6-.8-2.4-2.2z" clip-rule="evenodd"/></g><defs><clipPath id="_R_0_-a"><path fill="#fff" d="M0 0h100v100H0z"/></clipPath></defs></svg>