<svg xmlns="http://www.w3.org/2000/svg" fill="none" viewBox="0 0 100 100" style="width: 100%; height: 100%; display: block;"><g clip-path="url(#_R_0_-a)"><mask id="_R_0_-b" width="100" height="100" x="0" y="0" maskUnits="userSpaceOnUse" style="mask-type:luminance"><path fill="#fff" d="M100 0H0v100h100z"/></mask><g mask="url(#_R_0_-b)"><path fill="#8e8e8e" d="M9.1 75.1v18.6c0 .8.2 1.7.5 2.4.3.8.8 1.5 1.4 2.1s1.3 1.1 2.1 1.4 1.6.5 2.4.5h18q1.35 0 2.7-.6c.9-.4 1.6-.9 2.2-1.6l51.1-59.6c1-1.2 1.5-2.6 1.5-4.1V15.5c0-.8-.2-1.7-.5-2.4-.3-.8-.8-1.5-1.4-2.1S87.8 9.9 87 9.6s-1.6-.5-2.4-.5h-18q-1.35 0-2.7.6c-.8.4-1.6.9-2.2 1.6L10.6 70.9c-1 1.2-1.5 2.6-1.5 4.1z"/><path fill="url(#_R_0_-c)" d="M9.1 77.3v16.3c0 1.7.7 3.3 1.9 4.5s2.8 1.9 4.5 1.9h21.4l57.7-8.2c1.5-.2 2.9-1 3.9-2.1 1-1.2 1.6-2.6 1.6-4.2V61c0-3.5-2.8-6.4-6.4-6.4h-29c-.7 0-1.4.1-2 .3L13.5 71.3c-1.3.4-2.4 1.2-3.1 2.3-.8 1.1-1.2 2.4-1.2 3.7z"/><path fill="url(#_R_0_-d)" d="M0 6.4v53.1C0 60.7.4 62 1.1 63s1.7 1.9 2.8 2.3l58.6 25.1c.8.3 1.6.5 2.5.5h28.7c1.7 0 3.3-.7 4.5-1.9s1.9-2.8 1.9-4.5V56.4c0-1.3-.4-2.5-1.1-3.5L65.5 2.8c-.6-.9-1.4-1.6-2.3-2.1-.9-.4-2-.7-3-.7H6.4C5.6 0 4.7.2 4 .5c-.8.3-1.5.8-2.1 1.4S.8 3.2.5 4C.2 4.7 0 5.5 0 6.4"/><path fill="#000" d="M81.2 18.8H18.8v62.5h62.5V18.8z"/><path fill="#fff" d="M58.3 26.1c-2.2 0-4.3.5-6.1 1.6s-3.2 2.5-4.3 4.4c-1 1.8-1.6 3.9-1.6 6.2s.5 4.3 1.6 6.2c1 1.8 2.5 3.3 4.3 4.4 1.8 1 3.9 1.6 6.1 1.6s3.6-.4 5.2-1.1 2.9-1.7 3.9-2.9c1.1-1.3 1.8-2.8 2.1-4.4h-4.8c-.3.8-.8 1.6-1.4 2.2s-1.4 1.1-2.2 1.5c-.9.3-1.8.5-2.9.5s-2.6-.3-3.7-1-2-1.6-2.6-2.8-.9-2.6-.9-4.1.3-2.9.9-4.1 1.5-2.2 2.6-2.9 2.4-1 3.7-1 2 .2 2.9.5c.8.3 1.6.8 2.2 1.5.6.6 1.1 1.4 1.4 2.2h4.8c-.3-1.6-1.1-3.1-2.1-4.4s-2.4-2.3-3.9-3c-1.6-.7-3.3-1.1-5.2-1.1m-31.6.4v23.4h4.6V41h5.4c1.7 0 3.1-.3 4.4-.9s2.3-1.5 2.9-2.6c.7-1.1 1-2.4 1-3.9s-.3-2.7-1-3.8-1.6-1.9-2.9-2.5-2.7-.9-4.3-.9H26.7zm4.6 3.8h5.2c.8 0 1.4.1 2 .4s1 .7 1.3 1.2.5 1.1.5 1.8-.2 1.3-.5 1.9c-.3.5-.8.9-1.3 1.2-.6.3-1.2.4-2 .4h-5.2v-7zm-4.7 38.4v4.7h25v-4.7z"/></g></g><defs><linearGradient id="_R_0_-c" x1="11.9" x2="95.7" y1="101.1" y2="62.3" gradientUnits="userSpaceOnUse"><stop stop-color="#8e8e8e"/><stop offset=".6" stop-color="#d5d5d5"/></linearGradient><linearGradient id="_R_0_-d" x1="93.8" x2="2.1" y1="93.4" y2="1.7" gradientUnits="userSpaceOnUse"><stop offset=".3" stop-color="#d5d5d5"/><stop offset=".7" stop-color="#8e8e8e"/></linearGradient><clipPath id="_R_0_-a"><path fill="#fff" d="M0 0h100v100H0z"/></clipPath></defs></svg>