<svg xmlns="http://www.w3.org/2000/svg" fill="none" viewBox="0 0 100 100" style="width: 100%; height: 100%; display: block;"><path fill="#696969" d="M24.6 23.7h47.9c.6 0 1.2.2 1.7.7.4.4.7 1 .7 1.7s-.2 1.2-.7 1.7c-.4.4-1 .7-1.7.7H24.6c-.6 0-1.2-.2-1.7-.7-.4-.4-.7-1-.7-1.7 0-.6.2-1.2.7-1.7.4-.4 1-.7 1.7-.7"/><path fill="#777" d="M25 19h9.6v2.2H25z"/><path fill="#b8b8b8" d="M37.6 19h9.6v2.2h-9.6z"/><path fill="#959595" d="M50.1 19h9.6v2.2h-9.6z"/><path fill="#5d5d5d" d="M62.4 19H72v2.2h-9.6zm0 11.9H72v16.3h-9.6z"/><path fill="#959595" d="M50.1 30.9h9.6v26.4h-9.6z"/><path fill="#b8b8b8" d="M37.6 30.9h9.6v39.6h-9.6z"/><path fill="#777" d="M25 30.9h9.6v48.3H25z"/></svg>