<svg xmlns="http://www.w3.org/2000/svg" fill="none" viewBox="0 0 100 100" style="width: 100%; height: 100%; display: block;"><g clip-path="url(#_R_0_-a)"><path fill="url(#_R_0_-b)" d="M77.5 65.8 20.4 99.7l73.9-5 5.7-74.5z"/><path fill="url(#_R_0_-c)" d="M94.4 94.7 88 50.8 70.8 73.7z"/><path fill="url(#_R_0_-d)" d="M94.5 94.7 48 91l-27.3 8.6z"/><path fill="url(#_R_0_-e)" d="m20.7 99.6 11.6-38.1L6.7 67z"/><path fill="url(#_R_0_-f)" d="M70.8 73.8 60.1 31.9 29.4 60.6z"/><path fill="url(#_R_0_-g)" d="m97.6 32.5-29-23.7-8.1 26.1z"/><path fill="url(#_R_0_-h)" d="M84 .4 67 9.8 56.3.3z"/><path fill="url(#_R_0_-i)" d="m0 79.8 7.1-13-5.7-15.5z"/><path fill="#fff" d="m1 50.8 5.8 16.5L32 61.6l28.8-26.8L68.9 9 56.1 0 34.4 8.1c-6.9 6.4-20.2 19-20.6 19.2-.5.3-8.8 16-12.8 23.5"/><path fill="url(#_R_0_-j)" d="M21.4 21.2c14.9-14.7 34-23.4 41.4-16 7.3 7.4-.4 25.4-15.3 40.2C32.6 60.1 13.6 69.3 6.3 61.9c-7.3-7.5.2-26 15.1-40.7"/><path fill="url(#_R_0_-k)" d="m20.7 99.6 11.5-38.2 38.3 12.3c-13.8 13-29.2 24-49.8 25.9"/><path fill="url(#_R_0_-l)" d="m60.8 34.8 9.8 39c11.6-12.2 22-25.3 27-41.4z"/><path fill="url(#_R_0_-m)" d="M97.6 32.5c3.9-11.9 4.8-28.9-13.7-32.1L68.7 8.8z"/><path fill="#3b3b3b" d="M0 79.6c.5 19.6 14.7 19.9 20.7 20.1L6.8 67.2z"/><path fill="url(#_R_0_-n)" d="M60.9 34.8c8.9 5.5 26.8 16.4 27.2 16.6.6.3 7.7-12.1 9.4-19.1z"/><path fill="url(#_R_0_-o)" d="m32.2 61.4 15.4 29.8c9.1-4.9 16.3-11 22.8-17.4z"/><path fill="url(#_R_0_-p)" d="m6.7 67.2-2.2 26c4.1 5.6 9.8 6.1 15.7 5.7C16 88.2 7.4 66.8 6.7 67.2"/><path fill="url(#_R_0_-q)" d="m68.6 8.9 30.6 4.3C97.6 6.3 92.6 1.8 84 .4z"/></g><defs><linearGradient id="_R_0_-b" x1="87.827" x2="66.755" y1="108.81" y2="71.551" gradientUnits="userSpaceOnUse"><stop stop-color="#9a9a9a"/><stop offset=".41" stop-color="#616161"/><stop offset=".99" stop-color="#2e2e2e"/><stop offset="1" stop-color="#2e2e2e"/></linearGradient><linearGradient id="_R_0_-c" x1="99.004" x2="69.383" y1="74.243" y2="68.457" gradientUnits="userSpaceOnUse"><stop stop-color="#333"/><stop offset=".99" stop-color="#373737"/><stop offset="1" stop-color="#373737"/></linearGradient><linearGradient id="_R_0_-d" x1="57.838" x2="57.456" y1="110.302" y2="91.514" gradientUnits="userSpaceOnUse"><stop stop-color="#333"/><stop offset=".99" stop-color="#373737"/><stop offset="1" stop-color="#373737"/></linearGradient><linearGradient id="_R_0_-e" x1="19.534" x2="28.341" y1="64.296" y2="90.121" gradientUnits="userSpaceOnUse"><stop stop-color="#fff"/><stop offset=".23" stop-color="#919191"/><stop offset=".46" stop-color="#696969"/><stop offset=".99" stop-color="#323232"/><stop offset="1" stop-color="#323232"/></linearGradient><linearGradient id="_R_0_-f" x1="48.475" x2="50.072" y1="38.723" y2="66.676" gradientUnits="userSpaceOnUse"><stop stop-color="#fff"/><stop offset=".23" stop-color="#909090"/><stop offset=".56" stop-color="#4a4a4a"/><stop offset=".99" stop-color="#3a3a3a"/><stop offset="1" stop-color="#3a3a3a"/></linearGradient><linearGradient id="_R_0_-g" x1="76.646" x2="78.982" y1="12.605" y2="32.906" gradientUnits="userSpaceOnUse"><stop stop-color="#fff"/><stop offset=".18" stop-color="#868686"/><stop offset=".4" stop-color="#535353"/><stop offset=".99" stop-color="#3a3a3a"/><stop offset="1" stop-color="#3a3a3a"/></linearGradient><linearGradient id="_R_0_-h" x1="68.393" x2="71.686" y1="7.793" y2="-6.172" gradientUnits="userSpaceOnUse"><stop stop-color="#fff"/><stop offset=".54" stop-color="#505050"/><stop offset=".99" stop-color="#3f3f3f"/><stop offset="1" stop-color="#3f3f3f"/></linearGradient><linearGradient id="_R_0_-i" x1="-2.096" x2="6.517" y1="63.8" y2="69.199" gradientUnits="userSpaceOnUse"><stop stop-color="#fff"/><stop offset=".31" stop-color="#6c6c6c"/><stop offset=".99" stop-color="#494949"/><stop offset="1" stop-color="#494949"/></linearGradient><linearGradient id="_R_0_-j" x1="-9.302" x2="68.096" y1="78.347" y2="-1.466" gradientUnits="userSpaceOnUse"><stop stop-color="#3b3b3b"/><stop offset=".07" stop-color="#fff"/><stop offset=".17" stop-color="#fff"/><stop offset=".27" stop-color="#5b5b5b"/><stop offset=".33" stop-color="#2e2e2e"/><stop offset=".46" stop-color="#3e3e3e"/><stop offset=".72" stop-color="#414141"/><stop offset=".99" stop-color="#5d5d5d"/><stop offset="1" stop-color="#5d5d5d"/></linearGradient><linearGradient id="_R_0_-k" x1="49.225" x2="27.322" y1="88.182" y2="78.982" gradientUnits="userSpaceOnUse"><stop stop-color="#313131"/><stop offset=".54" stop-color="#353535"/><stop offset=".99" stop-color="#3c3c3c"/><stop offset="1" stop-color="#3c3c3c"/></linearGradient><linearGradient id="_R_0_-l" x1="90.623" x2="68.062" y1="57.574" y2="41.549" gradientUnits="userSpaceOnUse"><stop stop-color="#313131"/><stop offset=".99" stop-color="#363636"/><stop offset="1" stop-color="#363636"/></linearGradient><linearGradient id="_R_0_-m" x1="98.151" x2="87.541" y1="23.776" y2="13.006" gradientUnits="userSpaceOnUse"><stop stop-color="#313131"/><stop offset=".99" stop-color="#3b3b3b"/><stop offset="1" stop-color="#3b3b3b"/></linearGradient><linearGradient id="_R_0_-p" x1="19.654" x2=".631" y1="92.14" y2="76.35" gradientUnits="userSpaceOnUse"><stop stop-color="#3f3f3f"/><stop offset=".43" stop-color="#3a3a3a"/><stop offset=".99" stop-color="#404040"/><stop offset="1" stop-color="#404040"/></linearGradient><linearGradient id="_R_0_-q" x1="81.128" x2="86.527" y1="3.729" y2="17.388" gradientUnits="userSpaceOnUse"><stop stop-color="#3f3f3f"/><stop offset=".44" stop-color="#353535"/><stop offset=".99" stop-color="#373737"/><stop offset="1" stop-color="#373737"/></linearGradient><radialGradient id="_R_0_-n" cx="0" cy="0" r="1" gradientTransform="matrix(25.4167 0 0 13.2811 72.594 40.069)" gradientUnits="userSpaceOnUse"><stop stop-color="#3a3a3a"/><stop offset=".99" stop-color="#2f2f2f"/><stop offset="1" stop-color="#2f2f2f"/></radialGradient><radialGradient id="_R_0_-o" cx="0" cy="0" r="1" gradientTransform="matrix(33.7877 0 0 26.3022 37.395 73.566)" gradientUnits="userSpaceOnUse"><stop stop-color="#383838"/><stop offset=".99" stop-color="#303030"/><stop offset="1" stop-color="#303030"/></radialGradient><clipPath id="_R_0_-a"><path fill="#fff" d="M0 0h100v100H0z"/></clipPath></defs></svg>