<svg xmlns="http://www.w3.org/2000/svg" fill="none" viewBox="0 0 100 100" style="width: 100%; height: 100%; display: block;"><g clip-path="url(#_R_0_-a)"><path fill="#000" d="m99.3 48.8-4.2-2.6c0-.4-.1-.8-.1-1.2l3.6-3.4c.2-.2.3-.4.4-.6s.1-.5 0-.7c0-.2-.2-.5-.3-.7-.2-.2-.4-.3-.6-.4l-4.6-1.7c-.1-.4-.2-.8-.4-1.2l2.9-4c.1-.2.2-.4.3-.7 0-.2 0-.5-.1-.7s-.2-.4-.4-.6-.4-.3-.7-.3l-4.9-.8c-.2-.4-.4-.7-.6-1.1l2-4.5c.1-.2.1-.5.1-.7s-.1-.5-.2-.7-.3-.4-.5-.5-.5-.2-.7-.2l-4.9.2c-.3-.3-.5-.6-.8-.9l1.1-4.8c.1-.2.1-.5 0-.7s-.2-.5-.4-.6c-.2-.2-.4-.3-.6-.4s-.5-.1-.7 0l-4.8 1.1c-.3-.3-.6-.5-.9-.8l.2-4.9c0-.2 0-.5-.2-.7-.1-.2-.3-.4-.5-.5s-.4-.2-.7-.2-.5 0-.7.1l-4.5 2c-.4-.2-.7-.4-1.1-.6L70 4.9c0-.2-.1-.5-.3-.7s-.4-.3-.6-.4-.5-.1-.7-.1-.5.1-.7.3l-4 2.9c-.4-.1-.8-.2-1.2-.4l-1.7-4.6c-.1-.2-.2-.4-.4-.6q-.3-.3-.6-.3h-.7c-.2.1-.4.2-.6.4L55.1 5c-.4 0-.8-.1-1.2-.1L51.3.7c-.1-.2-.3-.4-.5-.5-.3-.1-.6-.2-.8-.2s-.5.1-.7.2-.4.3-.5.5l-2.6 4.2c-.4 0-.8.1-1.2.1l-3.4-3.6c-.2-.2-.4-.3-.6-.4s-.5-.1-.7 0c-.2 0-.5.2-.7.3s-.3.4-.4.6l-1.7 4.6c-.4.1-.8.2-1.2.4l-4-2.9c-.2-.1-.4-.2-.7-.3-.2 0-.5 0-.7.1s-.4.2-.6.4-.3.5-.3.7l-.8 4.9c-.4.2-.7.4-1.1.6l-4.5-2c-.2-.1-.5-.1-.7-.1s-.5.1-.7.2-.3.3-.5.5c-.1.2-.2.5-.2.7l.2 4.9c-.3.3-.6.5-.9.8L16 14.3c-.2-.1-.5-.1-.7 0s-.5.2-.6.4c-.2.2-.3.4-.4.6s-.1.5 0 .7l1.1 4.8c-.3.3-.5.6-.8.9l-4.9-.2c-.2 0-.5 0-.7.2-.2.1-.4.3-.5.5s-.2.4-.2.7c0 .2 0 .5.1.7l2 4.5c-.2.4-.4.7-.6 1.1l-4.9.8c-.2 0-.5.1-.7.3s-.3.4-.4.6-.1.5-.1.7.1.5.3.7l2.9 4c-.1.4-.2.8-.4 1.2l-4.6 1.7c-.2.1-.4.2-.6.4q-.3.3-.3.6v.7c.1.2.2.4.4.6L5 45c0 .4-.1.8-.1 1.2L.7 48.8c-.2.1-.4.3-.5.5s-.2.5-.2.7c0 .5.3 1 .7 1.2l4.2 2.6c0 .4.1.8.1 1.2l-3.6 3.4c-.2.2-.3.4-.4.6s-.1.5 0 .7c0 .2.2.5.3.7s.4.3.6.4l4.6 1.7c.1.4.2.8.4 1.2l-2.9 4c-.1.2-.2.4-.3.7 0 .2 0 .5.1.7s.2.4.4.6.5.3.7.3l4.9.8c.2.4.4.7.6 1.1l-2 4.5c-.1.2-.1.5-.1.7s.1.5.2.7.2.4.5.5c.2.1.5.2.7.2l4.9-.2c.3.3.5.6.8.9L14.3 84c-.1.2-.1.5 0 .7s.2.5.4.6c.2.2.4.3.6.4s.5.1.7 0l4.8-1.1c.3.3.6.5.9.8l-.2 4.9c0 .2 0 .5.2.7.1.2.3.4.5.5s.4.2.7.2c.2 0 .5 0 .7-.1l4.5-2c.4.2.7.4 1.1.6l.8 4.9c0 .2.1.5.3.7s.4.3.6.4.5.1.7.1.5-.1.7-.3l4-2.9c.4.1.8.2 1.2.4l1.7 4.6c.1.2.2.4.4.6s.4.3.7.3h.7c.2-.1.4-.2.6-.4L45 95c.4 0 .8.1 1.2.1l2.6 4.2c.1.2.3.4.5.5s.5.2.7.2.5-.1.7-.2.4-.3.5-.5l2.6-4.2c.4 0 .8-.1 1.2-.1l3.4 3.6c.2.2.4.3.6.4s.5.1.7 0c.2 0 .5-.2.7-.3s.3-.4.4-.6l1.7-4.6c.4-.1.8-.2 1.2-.4l4 2.9c.2.1.4.2.7.3.2 0 .5 0 .7-.1s.4-.2.6-.4.3-.4.3-.7l.8-4.9c.4-.2.7-.4 1.1-.6l4.5 2c.2.1.5.1.7.1s.5-.1.7-.2.4-.3.5-.5.2-.5.2-.7l-.2-4.9c.3-.3.6-.5.9-.8l4.8 1.1c.5.1 1 0 1.4-.4.2-.2.3-.4.4-.6s.1-.5 0-.7l-1.1-4.8c.3-.3.5-.6.8-.9l4.9.2c.2 0 .5 0 .7-.2.2-.1.4-.3.5-.5s.2-.4.2-.7c0-.2 0-.5-.1-.7l-2-4.5c.2-.4.4-.7.6-1.1l4.9-.8c.2 0 .5-.1.7-.3s.3-.4.4-.6.1-.5.1-.7-.1-.5-.3-.7l-2.9-4c.1-.4.2-.8.4-1.2l4.6-1.7c.2-.1.4-.2.6-.4s.3-.4.3-.7V59c-.1-.2-.2-.4-.4-.6L95 55.1c0-.4.1-.8.1-1.2l4.2-2.6c.2-.1.4-.3.5-.5s.2-.5.2-.7c0-.6-.3-1.1-.7-1.3M71.2 83.6c-1.6-.3-2.6-1.9-2.3-3.5s1.9-2.6 3.5-2.3 2.6 1.9 2.3 3.5-1.9 2.6-3.5 2.3M69.8 74c-.3-.1-.7-.1-1.1 0-.3.1-.7.2-1 .4s-.6.4-.8.7-.3.6-.4 1l-1.5 7c-4.6 2.1-9.7 3.2-15.1 3.2-5.5 0-10.7-1.2-15.4-3.4l-1.5-7c-.3-1.5-1.8-2.4-3.2-2.1l-6.1 1.3c-1.1-1.2-2.2-2.4-3.2-3.7h29.9c.3 0 .6-.1.6-.4V60.4c0-.3-.2-.4-.6-.4h-8.7v-6.7h9.5c.9 0 4.6.2 5.8 5 .4 1.5 1.2 6.3 1.8 7.8.6 1.7 2.8 5.2 5.3 5.2H79c.2 0 .3 0 .5-.1-1 1.4-2.2 2.7-3.4 4zm-41.3 9.5c-1.6.3-3.2-.7-3.5-2.3s.7-3.2 2.3-3.5 3.2.7 3.5 2.3c.3 1.5-.7 3.1-2.3 3.5m-11.4-46c.7 1.5 0 3.3-1.5 3.9-1.5.7-3.3 0-3.9-1.5-.7-1.5 0-3.3 1.5-3.9.4-.2.7-.2 1.1-.3.4 0 .8.1 1.1.2.4.1.7.4 1 .6.3.3.6.6.7 1m-3.5 8.3L20 43c.7-.3 1.2-.8 1.4-1.5.3-.7.2-1.4-.1-2.1l-1.3-3h5.2v23.4H14.8c-.9-3.3-1.4-6.6-1.4-10 0-1.4.1-2.8.2-4m28.1-2.3v-6.9H54c.6 0 4.5.7 4.5 3.6 0 2.4-3 3.3-5.4 3.3zm44.9 6.2c0 .9 0 1.8-.1 2.7h-3.8c-.4 0-.5.2-.5.6v1.7c0 4.1-2.3 4.9-4.3 5.2-1.9.2-4-.8-4.3-2-1.1-6.3-3-7.7-6-10 3.7-2.3 7.5-5.8 7.5-10.4 0-5-3.4-8.1-5.7-9.6-3.3-2.2-6.9-2.6-7.8-2.6H22.8c5.3-5.9 12.4-10 20.5-11.5l4.6 4.8q.3.45.9.6c.3.1.7.2 1 .2.4 0 .7-.1 1-.2q.45-.15.9-.6l5.1-4.9c10.7 2 19.8 8.7 25 17.8l-3.5 7.9c-.6 1.4 0 3 1.4 3.6l6.7 3c.1 1.2.2 2.5.2 3.7m-38.8-40c1.2-1.2 3.1-1.1 4.2.1s1.1 3.1-.1 4.2-3.1 1.1-4.2-.1c-.5-.6-.8-1.3-.8-2.1s.3-1.6.9-2.1m34.8 27.9c.2-.4.4-.7.7-.9.3-.3.6-.5 1-.6s.8-.2 1.1-.2.8.1 1.1.3c1.5.7 2.2 2.4 1.5 3.9-.2.4-.4.7-.7.9-.3.3-.6.5-1 .6s-.8.2-1.1.2c-.4 0-.8-.1-1.1-.3-1.5-.6-2.2-2.4-1.5-3.9"/></g><defs><clipPath id="_R_0_-a"><path fill="#fff" d="M0 0h100v100H0z"/></clipPath></defs></svg>