<svg xmlns="http://www.w3.org/2000/svg" fill="none" viewBox="0 0 100 100" style="width: 100%; height: 100%; display: block;"><g fill-rule="evenodd" clip-path="url(#_R_0_-a)" clip-rule="evenodd"><path fill="#191919" d="M18.1 37.2c.9 1.2 8.2 3.5 19.2 5.8 11 2.1 22.4 10.4 31.3 7.8 6-1.7 12.5-17.2 12.5-19.5v-.2c0-1.6-1.2-2.9-3.2-4-8.4-4.3-10-5.9-13.1-5-16.1 4.5-44.6 2.3-46.7 15.1m0 31.4c.9 1.2 8.2 3.5 19.2 5.8 12.3 2.2 22.9 9.5 31.8 7 6-1.7 12-16.3 12-18.6v-.2c0-1.6-1.2-2.9-3.2-4-6.4-3.4-14.8-7.1-17.9-6.3-16.2 4.5-37.8 5.4-41.9 16.3"/><path fill="#656565" d="M69.1 6.1c-14.8 4.3-38.4 6.7-51 6.7V37c0 .1 0 .2.1.2 8.7 0 35.4-2.8 51.5-7.3 2.8-.7 5.6-1.6 8.2-2.7 2-.9 3.2-1.8 3.2-2.8V0c0 2.3-6 4.3-12 6.1m0 31.4C60.2 40 48.2 41.9 37.3 43c-7.3.8-14.2 1.2-19.3 1.2v24.2c0 .1 0 .2.1.2 8.7 0 35.4-2.8 51.5-7.3 2.8-.7 5.6-1.6 8.2-2.7 2-.9 3.2-1.8 3.2-2.8V31.4c.1 2.3-5.9 4.3-11.9 6.1m0 31.4c-8.9 2.6-20.9 4.5-31.8 5.6-7.3.7-14.2 1.1-19.3 1.1V100c8.6 0 35.4-2.8 51.6-7.3 6-1.6 11.5-3.5 11.5-5.5V62.8c0 2.3-6 4.3-12 6.1"/></g><defs><clipPath id="_R_0_-a"><path fill="#fff" d="M0 0h100v100H0z"/></clipPath></defs></svg>