<svg xmlns="http://www.w3.org/2000/svg" fill="none" viewBox="0 0 100 100" style="width: 100%; height: 100%; display: block;"><path fill="#989898" d="M58.9 14.1c-3.1-.9-6.6-1.6-10-1.6-15.3 0-28.1 9.1-34.1 22.2-.6 1.6-2.2 2.2-3.8 1.6l-5.9-2.2c-1.9-.6-2.5-2.8-1.9-4.4C11.1 12.2 28.6 0 48.9 0s9.4.6 13.8 2.2c1.9.6 2.8 2.5 2.2 4.1l-2.2 5.9c-.6 1.6-2.2 2.2-3.8 1.9m24.3 1.5c0 1.7-.7 3.2-1.8 4.4-1.2 1.2-2.8 1.8-4.4 1.8s-3.2-.7-4.4-1.8c-1.2-1.2-1.8-2.8-1.8-4.4s.7-3.2 1.8-4.4c1.2-1.2 2.8-1.8 4.4-1.8s3.2.7 4.4 1.8c1.2 1.2 1.8 2.8 1.8 4.4M42.9 43.8h49.4c1.9 0 3.4-1.6 3.8-3.4v-5.9c0-1.9-1.6-3.4-3.4-3.4H43c-1.9 0-3.4 1.6-3.4 3.4v5.9c0 1.9 1.6 3.4 3.4 3.4zm-37.5 25h49.4c1.9 0 3.4-1.6 3.8-3.1v-5.9c0-1.9-1.6-3.4-3.4-3.4H5.4C3.5 56.4 2 58 2 59.5v5.9c0 1.9 1.6 3.4 3.4 3.4m15.4 21.8c1.7 0 3.2-.7 4.4-1.8 1.2-1.2 1.8-2.8 1.8-4.4s-.7-3.2-1.8-4.4c-1.2-1.2-2.8-1.8-4.4-1.8s-3.2.7-4.4 1.8c-1.2 1.2-1.8 2.8-1.8 4.4s.7 3.2 1.8 4.4c1.2 1.2 2.8 1.8 4.4 1.8m28.1-3.1c-3.4 0-6.9-.6-10-1.6-1.6-.3-3.1.3-3.8 1.9l-2.2 5.9c-.6 1.6.3 3.4 2.2 4.1 4.4 1.6 9.1 2.2 13.8 2.2 20.3 0 37.8-12.2 45.6-29.7.6-1.6 0-3.8-1.9-4.4l-5.9-2.2c-1.6-.6-3.1 0-3.8 1.6C77 78.4 64.1 87.5 48.8 87.5z"/></svg>