<svg xmlns="http://www.w3.org/2000/svg" fill="none" viewBox="0 0 100 100" style="width: 100%; height: 100%; display: block;"><g clip-path="url(#_R_0_-a)"><path fill="#333" d="M7.3 57c-.6 0-2.1-.5-3.4-.8l-2.3-.6 1.2-2.2L4 51.2 3.1 50C1.7 48.4 0 44.8 0 43.6c0-2.7 3.5-6.7 7.9-8.8 3-1.5 5.4-1.5 8.4-.1l2.3 1.1.7-.9c.4-.5.7-1.2.7-1.5s.3-.6.7-.6.7 0 .7.2c0 .3-2.6 6.9-2.8 7 0 0-.8-.3-1.6-.7-2.3-1.3-5.1-2.2-7.3-2.3-5.2-.1-6.9 4.9-3.3 9.3l1.3 1.6 3.5-2.8c3.9-3.2 4.4-3.2 7.4-1.1 3.4 2.4 3.5 6 .2 9.7-2.9 3.4-6 4.3-11.2 3.4zm8.8-3.6c1.7-1.3 1.6-3.8-.3-5.8-2.3-2.5-3-2.4-7.1 1.1-4.1 3.4-4.1 3.3.8 4.8 3.2 1 5.2 1 6.6 0zm33.1 13.1c-1.2-.4-4.3-1.7-7-2.9-7.2-3.2-8.3-3.2-10.4-.6-.5.6-1 1-1.2.8-.5-.5.9-2.7 2.6-4.1 1.4-1.2 1.8-1.4 3.3-1.2.9.1 4.1 1.2 7 2.4 6.6 2.8 8.5 3.4 11 3.4s4.6-2.1 3.7-5c-.2-.7-.2-.9.3-.9.9 0 1.3 3.3.7 5.2-.3.8-1.1 2-1.8 2.6-1 .9-1.7 1.1-3.7 1.1-1.3 0-3.3-.4-4.5-.8M32.3 56.3c-2.7-1.3-5.1-3.7-6.5-6.5-2.2-4.5-1.6-7.4 2.7-11.2 3.6-3.3 6.5-4.5 10.4-4.5s3.4.2 5.3 1.3c4.4 2.7 5.4 7.8 2.8 13.4-3.1 6.6-9.6 9.9-14.7 7.5m9-3.1c2-1 3.4-5.6 2.8-9.4-.7-4.7-7.1-7.9-11.7-5.9-4.8 2.1-4.9 7.5-.2 12.4 3.3 3.5 6.1 4.4 9.1 2.9m9.1 4c0-.2.7-.6 1.7-.8l1.7-.4.4-6c.4-6.7.1-13.2-.6-14.1-.3-.3-1.1-.7-1.8-.9-2.9-.7-1-1.1 4.7-1.1s7.5.4 4.8 1.1c-2.3.6-2.3.6-2.3 10.1s.2 9.2.5 9.8c.4.7.9.9 3.1.9 4.5 0 6.1-1.1 7.3-5 .4-1.2 1.3-1 1 .2-.2.6-.4 2.3-.6 3.8l-.3 2.8h-9.7c-5.4 0-9.7-.2-9.7-.4z"/><path fill="#585858" d="M72.6 56.9c0-.4.3-.7.9-1 .8-.4 1.3-1.1 3.1-4.6 2.9-5.6 7.4-15.1 7.8-16.6.3-1.1.4-1.1 1.6-1.3.7 0 1.3-.1 1.3-.1s1 2.2 2.2 4.8 3.6 7.6 5.3 11.1C97.7 55 98 55.5 99 56c.6.3 1.1.7 1.1 1 0 .4-.5.5-4.9.5s-4.9 0-4.9-.5.4-.6 1-.8 1-.5 1-.8-.6-1.8-1.3-3.5l-1.3-3h-9.8L79 51c-1.8 3.9-1.8 4.8-.2 5.2.8.2 1 .4.9.8s-.5.5-3.6.5c-3.3 0-3.5 0-3.5-.5zm16-9.6c.2-.3-3.5-8.3-3.9-8.4-.2 0-4.1 7.8-4.1 8.4s7.8.3 7.9 0z"/></g><defs><clipPath id="_R_0_-a"><path fill="#fff" d="M0 0h100v100H0z"/></clipPath></defs></svg>