<svg xmlns="http://www.w3.org/2000/svg" fill="none" viewBox="0 0 100 100" style="width: 100%; height: 100%; display: block;"><g clip-path="url(#_R_0_-a)"><mask id="_R_0_-b" width="100" height="100" x="0" y="0" maskUnits="userSpaceOnUse" style="mask-type:luminance"><path fill="#fff" d="M100 0H0v100h100z"/></mask><g mask="url(#_R_0_-b)"><path fill="#636363" d="M53.6 43.2h-5.1l-3.1 1.5c-.5.3-4.6 2.3-8.5 6 3.5-1.8 8.6-4.2 14.6-6.1 1.9-.6 3.7-1.1 5.6-1.5h-3.5zm-11.5.2c-2.9.1-5.8.2-8.7.4-1.7 0-3.4.2-5 .3-.8 0-1.7.1-2.5.2h-.7C23 45.6 14.6 50.9 8.9 57.7c5.6-3.9 15.3-9.7 27.4-13.1 1.9-.5 3.9-1 5.9-1.4zm24.8.1c-.1.2-.4.6-.8 1.1-1.2 1.7-3.7 4.8-6.9 7.4 4.5-.8 12.2-2.8 18.9-7.5.2-.1.3-.2.5-.4-1.6-.1-3.3-.2-4.9-.3-2.3-.1-4.6-.2-6.8-.3m-2.7 31.8c-.9 0-3.5.8-9.2 2.6h-.4c0 .1-.3 0-.3 0s-3.8-1.4-8.3-1.4h-1.1c-.5 0-3 1.2-6.2 6.3l-.2.3h-.4c-3.8 1.3-7.7 2.5-11.5 3.6h-.4c0 .1-.4 0-.4 0s-2.3-1.1-4.5-2.1c1.2 1.8 2.7 4 4.1 5.7 2.4 3 5.3 5.8 11 5.8s1.5 0 2.3-.1c5.8-.7 7.3-.9 8.1-1.1.3 0 .5 0 .8-.1 0 0 4.8-.6 6.1-3.6 1.4-3.1 1.6-3.8 1.7-3.8l.5-1.3s0-.3.2-.4c.2.1.4.5.4.5l.8.9c1.3 1.5 2.6 2.9 4 4.3s3.2 2.1 5.2 2.1c.7 0 1.4 0 2.1-.3.7-.2 1.4-.3 2.1-.5 2.7-.6 5.7-1.4 7.2-1.8.3 0 .6-.2 1-.2 2-.5 4.7-1.1 6.1-3.9 1.2-2.3 2.4-4.7 3.6-7-.9.4-1.7.8-2.6 1.3-1.1.6-2.5.8-4.3.8s-2.1 0-3.3-.2c-2.3-.2-6.3-.7-6.3-.7h-.3l-.2-.2s-3.5-2.8-6.3-5c-.1 0-.2-.2-.3-.3-.3-.3-.3-.3-.5-.3z"/><path fill="#e8e8e8" d="M53.8 2.3c-2 0-3.9.2-5.9.5-1.9.3-3.8.8-5.6 1.4-4.6 1.5-8.9 3.9-12.7 7.1-.8.6-1.5 1.3-2.2 2q-3.3 3.15-5.7 6.9c-.6.9-1.1 1.7-1.6 2.6s-1 1.8-1.4 2.8-.9 1.9-1.2 2.9c.8-.3 1.7-.5 2.6-.7.7-.2 1.3-.3 2-.5.7-.1 1.3-.3 2-.4-.6.2-1.3.5-1.9.7s-1.3.5-1.9.7c-1.2.5-2.5 1-3.7 1.6-.3.1-.6.3-.8.4-.3.2-.7.3-1 .5-.2 0-.3.2-.5.3-.4.2-.9.5-1.3.7-.5.3-1.1.6-1.5 1-.5.3-1 .7-1.4 1.1 0 .2 0 .5-.1.7v.1c0 .4 0 .7-.1 1.1v1.8c0 1.4 0 2.7.3 4.1.2 1.2.4 2.4.7 3.5 0 .2 0 .3.1.5v.3c.2.6.3 1.1.5 1.6s.4.9.6 1.3v.2s.2.1.3.1l.6.3c.3.2.8.4 1.2.5l-1.1-4.3c.2 0 2.4-.6 6-1.3-.3 0-.6-.1-.9-.2-.2 0-.4-.1-.6-.2-.1 0-.2 0-.4-.1-.5-.1-1-.3-1.5-.5l-1.2-.6c-.4-.2-.7-.5-1-.8.5.2 1.1.3 1.7.4s1.3.2 2 .2 1.5 0 2.3.1c1.6 0 3.4 0 5.2-.1 2.8-.1 5.6-.4 8.4-.7 5.1-.5 10.1-.9 15.2-1.1h10.1c1.7 0 3.4.1 5.1.2h.3c3.3.2 6.5.5 9.8.8 2.7.3 5.4.5 8.1.7h.3c.9 0 1.8 0 2.7.1h2.5c1.6 0 3.1-.1 4.4-.4.6-.1 1.2-.2 1.7-.4-.3.3-.6.6-1 .8l-1.2.6c-.4.2-.8.3-1.2.4l-1.2.3h-.4c4 .7 6.3 1.3 6.6 1.4l-1.1 4.1.4-.2h.2l.6-.4c.1 0 .2 0 .3-.2v-.2c.2-.4.4-.9.6-1.3.2-.6.4-1.3.6-1.9s.3-1.3.5-2c.1-.7.2-1.3.3-2 0-.7.2-1.3.2-2v-2c0-1 0-2-.2-2.9 0-.2 0-.5-.1-.7-.5-.4-.9-.7-1.4-1.1-.5-.3-1-.7-1.5-1q-1.8-1.05-3.6-1.8c-1.2-.6-2.5-1.1-3.7-1.6-.6-.3-1.3-.5-1.9-.7s-1.3-.5-1.9-.7c.7.1 1.3.2 2 .4.7.1 1.3.3 2 .5.9.2 1.7.5 2.6.7-2.3-5.9-5.7-11.1-10-15.2-.7-.7-1.4-1.3-2.2-2-3.8-3.2-8.1-5.6-12.7-7.1-1.8-.6-3.7-1.1-5.6-1.4s-3.9-.5-5.9-.5zM41.9 7.6c-.3.9-.5 1.8-.8 2.7l.2-.7s.4 22.7 5.7 22.7h1.7v-4.9h2V15.9h-1.4v2.5h-6V9.9h21.2v8.5h-6v-2.5h-1.4v11.5h2.1v4.9h1.6c5.1 0 5.6-21.1 5.6-22.5-.2-.8-.4-1.5-.7-2.3 2.8 4.9 3.7 10.4 4 14.4v.4c.1 0 0 .2 0 .2v3.7l.6-.6h.3l9.1 2.6c0-1.8.1-9.8-4.1-16.5.1.2 4.8 5.5 5.1 16.8l1.5.4c.1 0 .2.1.3.2 0 0 .1.2.2.3.2 1.4.4 2.8.4 4.2.6 2.3 1.6 5.5 3.3 6.4.3.2.7.3 1 .5q-1.05-.45-2.1-.6c-.7-.2-1.4-.3-2.1-.5-1.4-.3-2.8-.5-4.2-.7s-2.8-.3-4.3-.5c-1.4-.1-2.9-.2-4.3-.3-5.7-.4-11.5-.4-17.2-.4s-11.5.1-17.2.4c-1.4 0-2.9.2-4.3.3s-2.9.3-4.3.5-2.8.4-4.2.7c-.7.1-1.4.3-2.1.5l-2.1.6c.3-.2.6-.4 1-.5 1.7-1 2.7-4.1 3.3-6.4 0-1.3.2-2.6.4-4.2 0-.1 0-.2.2-.3 0 0 .2-.2.3-.2l1.5-.4c.3-11.3 5-16.6 5.1-16.8-4.2 6.7-4.1 14.6-4.1 16.5l9.1-2.6h.3l.6.6c0-3 0-11.6 4.1-18.7zm13.5 6.5v15.1h2.1-2V14.1zm15.1 13.5c-.7.6-1.6 1.4-2.5 2.1.9-.7 1.8-1.4 2.5-2.1m-37.2 2.1c-.9 0-2 .2-2.8.4-1.6.4-3.8.9-4.1 1.8-.7 1.7-1 6-1 6v.3c.9-.2 1.7-.4 2.6-.6 1.4-.3 2.8-.6 4.3-.8 1.4-.2 2.9-.4 4.3-.6h.3v-.1c-.1-.5-.2-.9-.3-1.4-.5-1.1-.9-2.2-1.1-3.4-.3-1.2-1-1.5-2-1.6zm41.2 0c-.9 0-1.7.4-2 1.6-.4 1.6-.9 2.9-1.3 3.8 0 .3-.1.6-.2 1v.1h.3c2.9.3 5.8.8 8.6 1.4.9.2 1.7.4 2.6.6v-.6c0-.8-.4-4.2-1-5.7-.4-.9-2.5-1.4-4.1-1.8-.8-.2-1.9-.5-2.8-.4zm-36.5 6v.4z"/><path fill="#d0d0d0" d="m91.8 57-1.4 9.7v.3s-.1.2-.2.2l-2 1.4v.6c1.8.5 3.7-.9 4.8-1.9.5-1.9.9-4.2 1.1-5.8.1-1.3.1-2 0-2.5 0-.2 0-.4-.1-.5 0 0 0-.2-.2-.2 0 0-.3-.2-.5-.4 0 0-.1 0-.2-.1-.4-.2-.8-.4-1.2-.7zm-75.5 1.3c-.5.2-1 .5-1.4.8-.2 0-.2.1-.3.2-.2.1-.5.3-.6.4-.2.2-.3.5-.3 1.7 0 .4 0 .9.1 1.5 0 .8.2 1.8.5 2.7.2 1 .5 2.1.8 3.1.8 1 2.2 2 4.1 1.3l-1.3-.9-.2-.2v-.3l-1.3-10.2zM54 59.7c-.5 0-.9 0-1.4.1L49.5 70c0 .1 0 .2-.2.3 0 0-.2.1-.3.2l-1.5.3c-.1.5-.6 1.3-1.9 1.7-2.2.7-16.2 4.9-17.8 4.6-.9-.1-2.7-1.1-4-1.9.6 1.4 1.3 2.8 2 4.1.3.5.6 1.1.9 1.6.1.2.2.4.4.6.5.7 1 1.5 1.5 2.3 2.9-.8 5.7-1.7 8.5-2.6.6-.9 1.2-1.7 1.8-2.5s1.3-1.5 2-2.2 1.4-1.2 2-1.6c.3-.2.6-.3.9-.5.3-.1.6-.2.9-.2h2.8c.5 0 1 0 1.6.1-.2-.2-.4-.4-.5-.6l-.3-.6c-.2-.4-.2-.7-.3-.9 0 0 .2.1.5.3l.6.3s.2 0 .3.1q1.2.6 2.7.9c.4 0 .8.1 1.2.1h1.2c1.5-.2 3-.7 4.4-1.5.4-.2.8-.5 1.1-.8.2-.2.3-.3.4-.3 0 0 0 .4-.2.9-.1.3-.3.6-.5.9q-.3.45-.9.9c1.5-.5 2.6-.8 3.5-1s1.4-.3 1.8-.3c1 0 1.4.4 1.9.8 0 0 .2.1.3.2.5.4.7.6 1.3 1 1.6 1.3 3.2 2.5 4.8 3.8h.6c1.2.1 3.6.4 5.4.6.6 0 1.1 0 1.6.1h2.4c.5-.9.9-1.9 1.4-2.8 0-.1.1-.3.2-.4.5-1.1.9-2.1 1.3-3.2-1.1.8-3.7 2.5-5 2.8-1.6.3-15.8-3.3-18-3.9-1-.3-1.5-.8-1.8-1.2h-1.2c-.1-.2-.3-.2-.4-.3-.1 0-.2-.2-.2-.3l-3.2-10.5c-.5 0-.9-.1-1.4-.1zm2.6 30.1c-.3.7-.6 1.4-1 2.2h1.3c.5 0 .9 0 1.4-.2-.6-.6-1.2-1.3-1.8-1.9zm2.7 2.9c-.8.2-1.6.3-2.4.4h-1.7c-.1.2-.3.4-.5.6l-.1.2-.4.4s-.1 0-.2.1-.3.2-.4.4c0 0-.1 0-.2.1-.2.1-.3.2-.5.3-.4.3-.8.5-1.2.7 0 0-.2 0-.3.1-.4.2-.8.3-1.1.4 4.9.8 10.1-.4 12.9-1.3-.3 0-.5-.2-.8-.3 0 0-.2 0-.3-.1-.2 0-.4-.2-.6-.3-.1 0-.2-.1-.3-.2-.2-.1-.3-.2-.5-.4 0 0-.2-.1-.3-.2l-.6-.6-.3-.3z"/><path fill="#696969" d="M64.2 43.9c-.8 0-1.6.2-2.4.3s-1.6.3-2.4.4c-2.6.5-5.2 1.1-7.7 1.9-1.2.4-2.3.8-3.4 1.2s-2.3.9-3.4 1.3c1.5 0 3-.1 4.5-.2h10.4c.7-.7 1.4-1.4 2-2.1s1.3-1.5 1.9-2.2c.2-.2.4-.5.5-.7zm17.1 1c-.7.5-1.4 1-2.1 1.4-2.2 1.3-4.4 2.5-6.6 3.4 2.3.2 4.4.5 6.4.7 2 .3 3.7.5 5.3.8s3 .5 4.2.7 2.2.4 2.9.6l1.5-5.6c-1.6-.4-4.3-.9-7.8-1.5-1.3-.2-2.5-.4-3.8-.6zm-41.4.9c-1.4.3-2.8.7-4.2 1.1s-2.7.8-4 1.3-2.5.9-3.8 1.4l-3.6 1.5c1.8-.3 3.6-.6 5.4-.8l5.4-.6c1.5-1.5 3.1-2.8 4.7-4zm-21 .4c-1.5.3-2.6.5-3.5.7l.4 1.6c1-.8 2-1.6 3.1-2.3m69 7.6-1.5 10.7v.3s-.1.2-.2.2l-2.1 1.5-3.6 2.5c-.1 0-.3.1-.5.1l-17.3-2c-.1 0-.3 0-.4-.2s-.2-.2-.2-.3L61 63l-2-6.7c-.6-.2-2-.5-3.4-.6h-1.4c-.9 0-1.9.1-2.8.3s-1.6.3-2 .4l-3.1 10.2c0 .1-.1.2-.2.3 0 0-.2.1-.3.2l-17.3 3.8h-.6l-3.4-2.4-2.4-1.7-.2-.2v-.3l-1.2-9.8-.3-2.8c-.6.1-1.2.2-1.7.4-.4.2-.7.4-1.1.6L19.2 68l8.3 5.8 21-4.7 3.1-10.2c0-.1.1-.2.2-.3 0 0 .2-.1.3-.2.8-.1 1.5-.2 2.1-.2s1.3 0 2.1.2c.1 0 .2 0 .3.2 0 0 .2.2.2.3L60 69.4l21.1 2.4 8.1-5.7 1.7-11.8c-1-.2-1.9-.4-2.9-.6z"/><path fill="#b6b6b6" d="M54.1 50.7h-3.7c-1.2 0-2.4 0-3.6.1-2.3 0-4.5.2-6.8.4-1 .5-1.9 1-2.8 1.5-.7.4-1.5.8-2.2 1.2-1.2.7-1.9 1.1-1.9 1.2L31 56.5l-2.1 1.4 1.7-2.4 1.2-1.7c.5-.7 1-1.3 1.5-1.9-2.1.2-4.2.5-6.3.8h-.6c-1.8.3-3.4.5-4.8.8l.7 5.8.8 6.6 5.2 3.7 16.6-3.7 1.6-5.1 1.6-5.1s0-.2.1-.2l.2-.2h.2s.7-.2 1.6-.4c.7-.1 1.4-.3 2-.3l3-1.8c.9-.6 1.8-1.2 2.6-1.9h-3.6zm14.5.6c-1.6.6-3.2 1-4.9 1.5-1.3.4-2.7.7-4 .9-2.3.5-3.8.7-4 .7h-.4c1.1 0 2.1.3 2.9.5s1.3.3 1.4.3.2 0 .3.2c0 0 .1.2.2.3l3.1 10.2 16.6 1.9 5.3-3.7 1.5-10.5c-2.6-.5-5.3-.9-7.9-1.2-1.5-.2-3.1-.4-4.6-.6-1.8-.2-3.6-.4-5.4-.5zm.7 2.7h.8c.3 0 .5.2.8.3.2.1.5.3.7.5s.5.5.7.8.4.6.5.9c.2.3.3.6.4 1l.3 1.2c0 .4.1.8.2 1.2v1.7c0 .1 0 .3-.1.4h1.2c.3 0 .6.2.8.4s.3.3.4.5c0 .1.1.2.1.3-.2 0-.4-.1-.6-.2h-.6c-.4 0-.8 0-1.3.1-.5 0-1 .2-1.6.2s-1.3.1-1.9.2h-1.5c-.2 0-.5 0-.7-.1-.2 0-.4-.1-.6-.2s-.4-.2-.5-.4c-.2-.2-.3-.4-.4-.6-.1-.3-.2-.5-.3-.8 0-.4-.1-.7-.1-1.1v-1.2c0-.4 0-.8.2-1.2.4-2.2 1.6-3.8 3.2-3.9zm-31.2.8c.3 0 .5 0 .8.1.2 0 .5.2.7.3.7.5 1.2 1.2 1.6 2.2.1.3.2.7.3 1 0 .4.2.8.2 1.2v2.3c0 .3-.1.6-.2.8 0 .2-.2.4-.4.6-.7.8-1.9.7-3.2.7H34c-.3 0-.7 0-1 .2-.3 0-.6.2-.9.4 0 0 0-.1.1-.2 0-.1.2-.3.4-.5s.4-.4.7-.5c.2 0 .3-.2.5-.3.2 0 .4-.1.6-.2-.1-.3-.2-.5-.2-.8 0-.4 0-.8-.1-1.1v-1.2c0-.4.1-.7.2-1.1s.2-.8.4-1.1.3-.6.5-.9.4-.5.6-.7.5-.4.7-.6.5-.3.7-.4c.2 0 .5-.1.8-.1z"/><path fill="#d5d5d5" d="M70.5 27.6c-.7.6-1.6 1.4-2.5 2.1v1c0 .5-.1 1-.2 1.5-.2 1.1-.6 2.4-1.2 3.7h.2l3 .3v-.4c.2-.8.4-1.6.5-2.3s.2-1.5.3-2.2v-3.6zm-33.3 0v3.7c0 .7.2 1.5.3 2.2s.3 1.5.5 2.2v.4c1.1-.1 2.1-.2 3.2-.3-.1-.3-.3-.6-.4-1-.1-.3-.2-.7-.3-1-.2-.6-.3-1.1-.4-1.7 0-.5-.2-1-.2-1.5v-1c-.4-.3-.9-.6-1.3-1-.4-.3-.8-.6-1.1-1l-.1-.1z"/><path fill="#303030" d="M69.3 54c-2.1 0-3.5 2.9-3.4 6.2.1 3.4 1.9 3.3 4.1 3.3 2.9 0 4.5-.9 5.9-.2 0 0-.5-1.4-2.5-1.2q.3-.75.3-2.1c-.3-3.4-2.2-6-4.4-6m-31.2.8c-2.1 0-4.2 2.8-4.1 6.2 0 .9.2 1.5.4 2-1.9.5-2.4 1.6-2.4 1.7 1.2-.6 2.5-.5 4.6-.5h1.3c2.1 0 3.9.2 3.9-3.2s-1.5-6.1-3.7-6.1zm31 1.3h.4c.1 0 .2.1.3.2 0 .1.2.2.2.3v.8c0 .1-.1.3-.2.4 0 .1-.2.2-.4.2h-.8c-.1 0-.2-.1-.3-.2 0 0-.1-.2-.2-.3 0-.2-.2-.3-.2-.5s0-.4.2-.5c0 0 0-.1.1-.2 0 0 .2-.1.3-.2zm-30.7.8c1.5-.1 1.6 2.2 0 2.2h-.5s-.1 0-.2-.1c-.1 0-.2-.2-.3-.4 0-.1-.1-.3-.1-.5 0-.3.1-.6.4-.8l.2-.2h.4z"/><path fill="#f4f4f4" d="M69.1 56.1h-.4c-.1 0-.3.1-.4.2s-.2.2-.2.4v.8c0 .1.1.3.2.4s.2.2.4.2h.4c.3 0 .6-.1.8-.3s.3-.5.3-.8-.1-.6-.3-.8-.5-.3-.8-.3zm-30.7.8H38c-.1 0-.3.1-.4.2s-.2.2-.2.4v.8c0 .1.1.3.3.4.1 0 .2.2.4.2h.4c.3 0 .6-.1.8-.3s.3-.5.3-.8-.1-.6-.3-.8-.5-.3-.8-.3z"/><path fill="#d5d5d5" d="m41.3 9.6-.2.7c-.9 3.6-2.2 10.3-1.4 17.6.4.3.7.6 1.1.8 0 0 .2.1.2.2v.3s0 3.4 1.6 6.3v.1c3.7-.3 7.4-.4 11.2-.4 3.7 0 7.4.1 11.2.4v-.1c1.5-2.9 1.6-6.3 1.6-6.3v-.3s.1-.2.2-.2c.4-.2.7-.5 1.1-.8.8-7.7-.6-14.6-1.6-18.1 0 1.4-.5 22.5-5.6 22.5h-1.6v1.5H48.5v-1.5h-1.7c-5.3 0-5.7-22.7-5.7-22.7zm28.5 12.3v.6zM35.9 27l-10.3 2.9c-.6 4.1-.4 7.1-.3 8.1 0 0 .3-4.4 1-6 .4-.9 2.5-1.4 4.1-1.8s4.3-1.2 4.8 1.1c.3 1.2.6 2.3 1.1 3.4-.6-3.1-.6-6.2-.5-7.7zm35.9 0c0 1.6.1 4.9-.6 8.1.5-.9 1-2.2 1.3-3.8.5-2.3 3.1-1.5 4.8-1.1 1.6.4 3.8.9 4.1 1.8.6 1.5.9 4.9 1 5.7 0-1.2.2-4-.4-7.8L71.7 27zm12 6.5c.2 3 0 5 0 5.1.1 0 .2 0 .4.1 1 .3 2.1.7 3 1.2-1.7-1-2.7-4.1-3.3-6.4zm-59.9 0c-.6 2.3-1.6 5.4-3.3 6.4 1-.5 2-.8 3-1.2.1 0 .2 0 .4-.1 0-.1-.3-2.1 0-5.1z" opacity=".8"/><path fill="#636363" d="M45.2 11.7v4.9h2.4v-2.5h5v15.1h-2V32h6.9v-2.8h-2.1V14.1h5v2.5h2.4v-4.9z"/><path fill="#b6b6b6" d="M92.9 67.3c-1.1 1-2.9 2.4-4.9 1.9 0 .4-.1.8-.3 1.3 1.1.3 3 .5 3.9.3.4-.4.9-1.9 1.3-3.6zm-77.8 1.4c.5 1.8 1.1 3.3 1.4 3.7 1 .2 3.2-.1 4.2-.4-.1-.3-.2-.7-.3-1.1l-1.3-.9c-1.8.7-3.2-.3-4.1-1.3zm71.1 1.2-.7.5-1.9 1.3-2 1.4c-.1 0-.3.1-.5.1l-20.4-2.3h-.3c.3.4.8.9 1.8 1.2 2.2.6 16.4 4.1 18 3.9 1.2-.2 3.8-2 5-2.8l.6-1.8c.1-.5.3-1 .4-1.5m-38.7.9-20.2 4.5h-.2c-.1 0-.3 0-.4-.1l-.8-.5-2.4-1.7-1-.7c0 .2.1.4.2.6.3.8.6 1.5.9 2.3 1.3.8 3.1 1.8 4 1.9 1.6.2 15.6-4 17.8-4.6 1.4-.4 1.8-1.2 1.9-1.7zM63 95.1c-2.8.8-8.1 2.1-12.9 1.3-1.3.4-2.3.6-2.4.6h-.6c2.7.7 5.5 1.1 8.2.9 3.5-.2 6.9-1 10.1-2.3-.8 0-1.7-.2-2.5-.5z"/><path fill="#303030" d="M53.8.4c-8.5 0-16.7 2.8-23.6 8.1-6.7 5.1-11.8 12.4-14.8 20.7-1.1.4-2.1.8-3.2 1.3-1.3.6-2.5 1.3-3.6 2.2l-.2.2v.3c-.2.4-.3.7-.3 1.1s-.1.7-.2 1.1c-.1.7-.2 1.4-.2 2.2 0 1.5 0 2.9.1 4.4.2 1.5.4 2.9.8 4.3.2.7.4 1.4.7 2.1.2.5.4 1 .7 1.5v.3c.2 0 .2.2.3.3v.2c.1 0 .4.1.4.1.2.1.4.2.7.3l.6.3c.1 0 .2 0 .4.1-2.9 2.7-6.1 6.3-8.9 10.6L0 67.6l4.9-4.3s4.2-3.6 11.1-7.7v.8c-.4.2-2.5 1.4-3.2 1.9-1.1.9-1.1 2.3-.8 4.8.1 1.3.6 3.9 1.3 6.2 1.1 4 2 4.7 2.7 4.9.3 0 .8.1 1.2.1 1.3 0 3-.3 4.1-.6 1.3 4 3.1 7.6 5.3 10.8h-.3c-1.3-.5-6-2.7-7.6-3.4l-3.3-1.5 1.9 3c.1.2 3.5 5.5 6.2 9 2.6 3.3 6.1 6.7 12.7 6.7.8 0 1.7 0 2.5-.1 1.5-.2 3.1-.4 4.6-.5 7 2.6 14.6 2.7 21.9 0 1.9-.7 3.7-1.6 5.5-2.7 2.7-.7 5.8-1.4 7.3-1.8.2 0 .5-.1.9-.2 2.1-.5 5.6-1.3 7.5-5.1s5-9.6 5-9.7l1.4-2.7-2.8 1.2c-.2 0-3.7 1.6-5.6 2.6 0 0-.1 0-.2.1 1.5-3.1 2.3-5.5 2.5-6.5 1 .2 2.6.2 3.7.2.5 0 1 0 1.5-.2.7-.2 1.3-.7 2.4-4.8.6-2.4 1.1-5 1.2-6.4.2-2.6.2-4-.9-4.9-.5-.4-2.1-1.3-2.9-1.7v-.3c.4 0 .7.2.7.2l.7-2.7c.3-.1.6-.2.8-.3.4-.2.9-.3 1.3-.5l.7-.3c.2-.1.4-.2.7-.3h.2c0-.1.1-.3.1-.3 0-.1.1-.2.2-.3V50c.2-.2.3-.3.4-.5.2-.3.3-.7.4-1 .3-.7.5-1.4.7-2.1.4-1.4.7-2.8.8-4.3.2-1.5.2-2.9.1-4.4 0-.7-.1-1.5-.2-2.2 0-.4-.1-.7-.2-1.1 0-.4-.2-.7-.3-1.1V33l-.3-.2c-1.1-.9-2.4-1.6-3.6-2.2-1-.5-2.1-.9-3.2-1.3-3-8.2-8.1-15.6-14.8-20.7C70.5 3.2 62.3.4 53.8.4m0 1.9c15.8 0 30.3 10.3 36.3 26.1-.9-.3-1.7-.5-2.6-.7-1.3-.3-2.7-.6-4-.9.6.2 1.3.5 1.9.7s1.3.5 1.9.7c1.3.5 2.5 1 3.7 1.6l3.6 1.8c1.1.6 2.1 1.3 3 2 0 .2 0 .5.1.7 0 .3 0 .7.1 1v2c0 1.4 0 2.7-.2 4.1-.2 1.3-.4 2.7-.8 4-.2.6-.4 1.3-.6 1.9-.1.3-.2.6-.4.9 0 .1-.1.3-.2.4v.2c-.2 0-.3.1-.4.1l-.6.3c-.2 0-.4.2-.6.3l1.1-4.1c-.2 0-2.6-.7-6.6-1.4h.4c.8-.2 1.7-.5 2.5-.8l1.2-.6c.4-.2.7-.5 1-.8-4 1.3-12.3.7-19.7 0-6.7-.7-13.5-1.1-20.3-1.2-6.8 0-13.6.5-20.3 1.2-7.4.8-15.7 1.4-19.7 0 .3.3.6.6 1 .8l1.2.6c.8.3 1.6.6 2.4.8.3 0 .6.1.9.2-3.7.7-5.8 1.2-6 1.3l1.1 4.3c-.4-.2-.8-.4-1.2-.5l-.6-.3c-.1 0-.2 0-.3-.2v-.2c-.3-.4-.5-.9-.7-1.3-.2-.6-.4-1.3-.6-1.9-.4-1.3-.6-2.6-.8-4-.2-1.3-.3-2.7-.3-4.1v-2c0-.3 0-.7.1-1 0-.2 0-.5.1-.7.9-.8 1.9-1.4 3-2q1.8-1.05 3.6-1.8c1.2-.6 2.5-1.1 3.7-1.6.6-.3 1.3-.5 1.9-.7s1.3-.5 1.9-.7c-1.3.2-2.7.5-4 .9-.9.2-1.7.5-2.6.7C23.5 12.6 38 2.3 53.8 2.3M41.9 7.6c-4.1 7.1-4.2 15.7-4.1 18.7l-.6-.6h-.3l-9.1 2.6c0-1.9-.1-9.8 4.1-16.5-.1.2-4.8 5.5-5.1 16.8l-1.5.4c-.1 0-.2.1-.3.2 0 0-.1.2-.2.3-.9 5.4-.4 9.2-.4 9.3-.1 0-.2 0-.4.1-1.4.5-2.8.9-4 1.7q1.05-.45 2.1-.6c.7-.2 1.4-.3 2.1-.5 1.4-.3 2.8-.5 4.2-.7s2.8-.3 4.3-.5c1.4-.1 2.9-.2 4.3-.3 5.7-.3 11.5-.4 17.2-.4s11.5 0 17.2.4c1.4 0 2.9.2 4.3.3s2.9.3 4.3.5 2.8.4 4.2.7c.7.1 1.4.3 2.1.5l2.1.6c-1.3-.7-2.6-1.2-4-1.7-.1 0-.2 0-.4-.1 0-.2.5-3.9-.4-9.3 0-.1 0-.2-.2-.3 0 0-.2-.2-.3-.2l-1.5-.4c-.3-11.3-5-16.6-5.1-16.8 4.2 6.7 4.1 14.6 4.1 16.5l-9.1-2.6h-.3l-.6.6c0-3 0-11.6-4.1-18.7 0 .2 3.3 9.7 2.2 20.3-.4.3-.7.6-1.1.8 0 0-.2.1-.2.2v.3s0 3.4-1.6 6.3v.1c-3.7-.3-7.4-.4-11.2-.4-3.7 0-7.4.1-11.2.4v-.1c-1.5-2.9-1.6-6.3-1.6-6.3v-.3s-.1-.2-.2-.2c-.4-.2-.8-.5-1.1-.8-1.1-10.6 2.1-20.1 2.2-20.3zm1.5 2.3v8.5h6v-2.5h1.4v11.5h-2v6.4h10.6v-6.4h-2.1V15.9h1.4v2.5h6V9.9zm1.8 1.8h17.6v4.9h-2.4v-2.5h-5v15.1h2V32h-6.9v-2.8h2.1V14.1h-5v2.5h-2.4zM35.9 27c0 1.7-.1 5.5.9 9.1v.1h-.3c-1.4.2-2.9.4-4.3.6s-2.9.5-4.3.8c-.9.2-1.7.4-2.6.6 0-.6-.4-3.9.3-8.4l10.3-2.9zm35.9 0 10.3 2.9c.7 4.5.4 7.8.3 8.4-.9-.2-1.7-.4-2.6-.6-2.8-.6-5.7-1.1-8.6-1.4h-.3v-.1c1-3.6.9-7.4.9-9.1zm-1.3.6c0 1.8 0 5.1-.8 8.2v.4c-1.1-.1-2.1-.2-3.2-.3 1.2-2.5 1.5-5.2 1.5-6.2.9-.7 1.8-1.4 2.5-2.1m-33.3 0c.7.6 1.6 1.4 2.5 2.1 0 .9.3 3.6 1.5 6.2-1.1 0-2.1.2-3.2.3v-.3c-.8-3.1-.9-6.4-.8-8.2zm16.4 15.6h3.5c-1.9.4-3.8.9-5.6 1.5-6 1.8-11.1 4.2-14.6 6.1 3.9-3.7 8-5.8 8.5-6l3.1-1.5h5.1zm-11.5.2c-2 .4-4 .9-5.9 1.4-12 3.4-21.8 9.2-27.4 13.1 5.8-6.9 14.1-12.1 16.3-13.4h.7c.8 0 1.7-.2 2.5-.2 1.7-.1 3.4-.2 5-.3 2.9-.2 5.8-.3 8.7-.4zm24.8.1c2.3 0 4.6.2 6.8.3 1.6 0 3.3.2 4.9.3-.2.1-.3.2-.5.4-6.7 4.7-14.4 6.7-18.9 7.5 3.2-2.6 5.6-5.7 6.9-7.4.3-.4.5-.7.8-1.1m-2.7.4c-.2.2-.3.4-.5.7-1.2 1.5-2.5 3-3.9 4.3h-5.7c-3.2 0-6.3 0-9.3.2 4.2-1.7 9.1-3.4 14.6-4.4 1.6-.3 3.2-.5 4.8-.7zm17.1 1c5.4.8 9.4 1.6 11.6 2.1l-1.5 5.6c-3-.7-9.7-2-18.8-2.9 3-1.3 6-2.9 8.8-4.8zm-41.4.9c-1.7 1.2-3.3 2.5-4.8 4-3.6.4-7.2.8-10.8 1.4 4.6-2.1 9.9-4.1 15.6-5.4m-21 .4c-1.1.7-2.1 1.5-3.1 2.3l-.4-1.6c1.2-.3 2.3-.5 3.5-.7m35.2 4.5h3.6c-.8.7-1.7 1.3-2.6 1.9l-3 1.8c-1.9.2-3.6.7-3.7.7h-.2c-.2 0-.3.2-.3.4l-3.1 10.2-16.6 3.7-5.2-3.7-1.5-12.3c3-.5 6.9-1.2 11.7-1.7-.5.6-1 1.3-1.5 1.9l-2.8 4.1 4.1-2.8s2.7-1.8 7-3.9c4.7-.4 9.4-.5 14.1-.5zm14.5.6c7.6.6 13.7 1.5 17.9 2.3L85 64.1l-5.3 3.7-16.6-1.9L60 55.7c0-.1 0-.2-.2-.3 0 0-.2-.1-.3-.2-.1 0-2.2-.6-4.3-.8h.4c.3 0 6.1-.8 12.9-3.1zm19.3 2.5c1 .2 1.9.4 2.9.6l-1.7 11.8-8.1 5.7-21.1-2.4L56.7 59c0-.1-.1-.2-.2-.3 0 0-.2-.1-.3-.2-.8-.1-1.5-.2-2.1-.2s-1.3 0-2.1.2c-.1 0-.2 0-.3.2 0 0-.2.2-.2.3l-3.1 10.2-21 4.7-8.3-5.8-1.6-13.3c.4-.2.7-.4 1.1-.6.5-.1 1.1-.2 1.7-.4l1.5 12.5v.3s.1.2.2.2l5.7 4s.2 0 .3.1.2 0 .3 0l17.3-3.8c.1 0 .2 0 .3-.2 0 0 .2-.2.2-.3l3.1-10.3c.8-.2 3-.7 4.9-.7s4 .5 4.8.7L62 66.5c0 .1.1.2.2.3.1 0 .2.1.4.2l17.3 2c.2 0 .3 0 .5-.1l5.7-4 .2-.2v-.3l1.5-10.7zm3.9 3.2c.8.5 1.7 1 2 1.2s.5.8.2 3.3c-.3 3.1-1.6 8.5-2.4 9.4-.9.2-2.8 0-3.9-.3.2-.8.3-1.2.4-2l2-1.4.2-.2v-.3l1.4-9.7zm-75.5 1.3 1.3 10.2v.3s.1.2.2.2l2.6 1.8c0 .4.2.7.3 1.1-1.1.3-3.2.6-4.2.4-.8-.8-2.3-6.5-2.7-9.5-.3-2.4 0-3 .2-3.2.3-.2 1.4-.9 2.3-1.4zM54 59.7c.4 0 .9 0 1.4.1l3.2 10.5c0 .3.3.5.6.5l1.5.2 20.4 2.3c.2 0 .3 0 .5-.1l2-1.4 1.9-1.3.7-.5c-.1.5-.2 1-.4 1.5-1 3.1-2.1 5.9-3.4 8.3h-.9c-1 0-2 0-3.1-.2-1.9-.2-5-.5-6-.6-.8-.7-3.7-2.9-6.1-4.8 0 0-.2-.1-.3-.2-.4-.4-.9-.8-1.9-.8s-2.2.3-5.2 1.3c1.6-1.2 1.6-2.8 1.6-2.8s-2.3 2.1-6 2.6-6.6-1.8-6.6-1.8c.1.4.3 1.3 1.1 2-1-.1-2.1-.2-3.2-.2h-1.2c-2.3.1-5.5 3.5-7.7 7-2.8.9-5.7 1.8-8.5 2.6-3.7-5.2-5.5-10.4-5.7-11 0-.2-.2-.4-.2-.6l1 .7 2.4 1.7.8.5c.1 0 .3.1.4.1h.2L49 70.5c.1 0 .2 0 .3-.2 0 0 .2-.2.2-.3l3.1-10.2c.5 0 .9-.1 1.4-.1m10.2 15.6q.2 0 .5.3l.3.3c2.8 2.2 6.3 5 6.3 5l.2.2h.3s4 .5 6.3.7c1.2.1 2.2.2 3.3.2 1.8 0 3.2-.3 4.3-.8.9-.4 1.7-.9 2.6-1.3-1.2 2.3-2.4 4.6-3.6 7-1.4 2.9-4.1 3.5-6.1 3.9-.3 0-.7.2-1 .2-1.5.4-4.5 1.1-7.2 1.8-.7.2-1.5.4-2.1.5q-1.05.3-2.1.3c-2 0-3.7-.7-5.2-2.1-1.4-1.4-2.7-2.8-4-4.3l-.8-.9s-.2-.3-.4-.5c0 .1-.2.4-.2.4l-.5 1.3s-.3.8-1.7 3.8c-1.3 3-6.1 3.6-6.1 3.6-.3 0-.5 0-.8.1-.8.1-2.3.4-8.1 1.1-.8 0-1.5.1-2.3.1-5.7 0-8.7-2.8-11-5.8-1.3-1.7-2.9-3.9-4.1-5.7 2.2 1 4.5 2.1 4.5 2.1l.4.2h.4c3.9-1.2 7.7-2.4 11.5-3.6h.4c0-.1.2-.4.2-.4 3.2-5.1 5.8-6.3 6.2-6.3h1.1c4.5 0 8.3 1.4 8.3 1.4h.3c0 .1.4 0 .4 0 5.7-1.8 8.3-2.6 9.2-2.6zm-7.6 14.5c.6.7 1.2 1.3 1.8 1.9-.5 0-1.1.1-1.6.2h-1.1c.3-.7.6-1.4 1-2.2zm2.7 2.9.3.3c1.7 1.6 3.7 2.6 6 2.7C62.4 97 59 97.8 55.5 98c-2.7.2-5.5-.1-8.2-.9h.6c.2 0 5.1-.7 7.3-3.9h1.7c.8 0 1.6-.2 2.4-.4z"/></g></g><defs><clipPath id="_R_0_-a"><path fill="#fff" d="M0 0h100v100H0z"/></clipPath></defs></svg>