<svg xmlns="http://www.w3.org/2000/svg" fill="none" viewBox="0 0 100 100" style="width: 100%; height: 100%; display: block;"><g clip-path="url(#_R_0_-a)"><path fill="#6c6c6c" d="M37.5 72.1c5.3 0 9.6-4.3 9.6-9.6s-4.3-9.6-9.6-9.6-9.6 4.3-9.6 9.6 4.3 9.6 9.6 9.6m0-25c5.3 0 9.6-4.3 9.6-9.6s-4.3-9.6-9.6-9.6-9.6 4.3-9.6 9.6 4.3 9.6 9.6 9.6m25 25c5.3 0 9.6-4.3 9.6-9.6s-4.3-9.6-9.6-9.6-9.6 4.3-9.6 9.6 4.3 9.6 9.6 9.6m0-25c5.3 0 9.6-4.3 9.6-9.6s-4.3-9.6-9.6-9.6-9.6 4.3-9.6 9.6 4.3 9.6 9.6 9.6M50 0c27.1 0 50 22.9 50 50s-22.9 50-50 50S0 77.1 0 50 22.9 0 50 0m0 13.5c-20.1 0-36.5 15.8-36.5 35.9S29.9 86.6 50 86.6s36.5-17.2 36.5-37.2S70.1 13.5 50 13.5"/></g><defs><clipPath id="_R_0_-a"><path fill="#fff" d="M0 0h100v100H0z"/></clipPath></defs></svg>