<svg xmlns="http://www.w3.org/2000/svg" fill="none" viewBox="0 0 100 100" style="width: 100%; height: 100%; display: block;"><g clip-path="url(#_R_0_-a)"><path fill="#606060" stroke="#000" stroke-width=".269" d="M50.78 5.666 6.014 50.096l44.569 44.238 44.765-44.43z"/><path fill="#c5c5c5" stroke="#000" stroke-width=".269" d="M50.584 5.86V1.986L1.909 50.194h4.105z"/><path fill="#ababab" stroke="#000" stroke-width=".269" d="M50.486 5.86V1.986L99.161 50.29h-4.106z"/><path fill="#4d4d4d" stroke="#000" stroke-width=".269" d="M50.584 94.528V98.4L1.909 50.097h4.105z"/><path stroke="#000" stroke-width="5.383" d="M11 6.827h31.374l1.954 1.936v5.808l-1.563 1.84h-3.421v28.942L68.86 16.41h-4.887l-1.76-1.839V8.473L63.78 7.02h31.765l1.564 1.549v5.71L25.367 87.463h-8.21l-2.346-1.356V16.12h-4.007l-1.466-1.452V8.57z"/><path fill="#373737" stroke="#000" stroke-width=".269" d="M50.486 94.528V98.4l48.675-48.303h-4.106z"/><path stroke="#000" stroke-width="1.615" d="M50.486 1.6 1.616 50.097 50.291 98.4l48.87-48.497z"/><path fill="#fefefe" stroke="#000" stroke-width=".269" d="m42.667 9.828 1.76-.968-1.76-1.742H10.999L9.338 8.666v6.002l1.759 1.742.88-1.742-1.075-1.065V9.344l.88-.774h30.2z"/><path stroke="#000" stroke-width=".269" d="m65.05 8.473-1.076 1.064v4.066l.977.968h5.18v3.969L35.924 52.904V14.668h5.669l1.173-1.162V9.344l-1.076-.775H11.683l-.977.968V13.7l.977.968h5.18v70.47l.978.968h5.962l71.741-73.374V9.537L94.47 8.473z"/><path fill="#fefefe" stroke="#000" stroke-width=".269" d="M16.864 14.571v70.664l.88 1.065-.685 1.355-2.052-2.032V16.41z"/><path fill="gray" stroke="#000" stroke-width=".269" d="m11.781 14.571-.489 1.743h3.812l2.15-1.743z"/><path fill="#fefefe" d="m64.365 16.507.88-1.742-1.173-1.065V9.925l1.368-1.356h29.225l1.075 1.452 1.563-1.064-1.661-1.646H64.267L62.704 8.86v6.098zm-25.412 29.04-3.03 7.357 34.404-34.267V14.57z"/><path stroke="#000" stroke-width=".269" d="m64.365 16.507.88-1.742-1.173-1.065V9.925l1.368-1.356h29.225l1.075 1.452 1.563-1.064-1.661-1.646H64.267L62.704 8.86v6.098zm-25.412 29.04-3.03 7.357 34.404-34.267V14.57z"/><path fill="gray" stroke="#000" stroke-width=".269" d="m42.57 9.635 1.563-.969v5.905l-1.76 1.743h-3.42v29.33l-3.03 7.26V14.571h5.669l1.075-.87V9.633z"/><path fill="#ccc" stroke="#000" stroke-width=".269" d="m65.05 8.473-1.076 1.064v4.066l.977.968h5.18v3.969L35.924 52.904V14.668h5.669l1.173-1.162V9.344l-1.076-.775H11.683l-.977.968V13.7l.977.968h5.18v70.47l.978.968h5.962l71.741-73.374V9.537L94.47 8.473z"/><path fill="gray" stroke="#000" stroke-width=".269" d="m95.642 9.634 1.564-.87v5.71l-72.23 73.181h-7.624l.685-1.452H23.9L95.544 12.83zm-25.51 5.034-1.662 1.646h-4.203l.978-1.646z"/><path fill="#ccc" stroke="#000" stroke-miterlimit="10" stroke-width="2.153" d="M52.93 55.905c-.098 0-.098 0-.196.097l-1.368 1.161-.098.097-1.368 3.872v.194c0 .096 0 .096.097.193l1.075 1.065c.098.097.098.097.196.097h4.3c.098 0 .196 0 .196-.097l1.075-1.162.098-.096 1.173-4.066v-.194c0-.096 0-.096-.098-.193l-.88-.871c-.097-.097-.097-.097-.195-.097zm-7.82 10.938c-.097 0-.097 0-.195.097 0 0-.098.097-.098.194l-.489 2.13v.096s0 .097.098.097l.098.097h2.638l-6.254 17.714v.194c0 .096 0 .096.097.096l.098.097h9.188c.097 0 .097 0 .195-.097.098 0 .098-.096.098-.193l.586-1.936v-.194c0-.097 0-.097-.098-.097l-.097-.096h-2.151l6.158-17.908v-.194c0-.097 0-.097-.098-.097l-.097-.097H45.11zm28.931 0c-.097 0-.097.097-.195.097l-1.857 2.13h-3.03l-2.053-2.033-.097-.097h-7.331c-.098 0-.098 0-.195.097-.098 0-.098.097-.098.193l-.684 1.936v.194c0 .097 0 .097.098.097l.097.097h2.053l-5.962 17.52v.194c0 .097 0 .097.097.097l.098.097h7.722c.097 0 .097 0 .195-.097.098 0 .098-.097.098-.194l.586-1.742v-.194c0-.097 0-.097-.097-.097l-.098-.096h-1.466l3.91-11.81h6.939l-4.398 13.842v.194c0 .097 0 .097.097.097l.098.097h7.526c.098 0 .098 0 .195-.097.098 0 .098-.097.098-.097l.684-1.549v-.193c0-.097 0-.097-.097-.097l-.098-.097h-1.564l3.91-12.1h6.548l-4.398 13.94v.193c0 .097 0 .097.098.097l.097.096h8.21c.098 0 .098 0 .196-.096.098 0 .098-.097.098-.194l.684-1.742v-.194c0-.097 0-.097-.098-.097l-.098-.097H88.8l4.887-15.778v-.194c0-.096 0-.096-.098-.096l-1.564-2.033-.097-.097h-5.962s-.098 0-.098.097L84.01 69.07h-3.226l-1.857-2.033-.097-.097h-4.79z"/><path fill="#ccc" stroke="#000" stroke-miterlimit="10" stroke-width=".269" d="m53.027 56.292-1.368 1.162-1.368 3.872 1.075 1.064h4.3l1.075-1.161 1.173-4.066-.88-.871zM45.11 67.134l-.488 2.13h2.932l-6.353 18.1h9.09l.586-1.935h-2.541l6.353-18.295zm28.931.096-1.954 2.227h-3.324l-2.15-2.13H59.38l-.684 1.936h2.541L55.08 87.171h7.624l.586-1.742h-1.76l4.008-12.584h7.624l-4.496 14.23h7.428l.684-1.55h-1.857l4.105-12.777h7.233l-4.496 14.423h8.112l.684-1.742h-2.052l4.985-16.166-1.564-2.033H86.16l-1.955 2.13h-3.42l-1.955-2.13z"/></g><defs><clipPath id="_R_0_-a"><path fill="#fff" d="M0 0h100v100H0z"/></clipPath></defs></svg>